<svg width="360" height="800" viewBox="0 0 360 800" fill="none" xmlns="http://www.w3.org/2000/svg">
<rect width="360" height="800" fill="#F5F5F5"/>
<rect width="360" height="70" fill="#FED06E"/>
<path d="M65.376 48.252C63.528 48.252 61.872 47.952 60.408 47.352C58.944 46.752 57.768 45.864 56.88 44.688C56.016 43.512 55.56 42.096 55.512 40.44H62.064C62.16 41.376 62.484 42.096 63.036 42.6C63.588 43.08 64.308 43.32 65.196 43.32C66.108 43.32 66.828 43.116 67.356 42.708C67.884 42.276 68.148 41.688 68.148 40.944C68.148 40.32 67.932 39.804 67.5 39.396C67.092 38.988 66.576 38.652 65.952 38.388C65.352 38.124 64.488 37.824 63.36 37.488C61.728 36.984 60.396 36.48 59.364 35.976C58.332 35.472 57.444 34.728 56.7 33.744C55.956 32.76 55.584 31.476 55.584 29.892C55.584 27.54 56.436 25.704 58.14 24.384C59.844 23.04 62.064 22.368 64.8 22.368C67.584 22.368 69.828 23.04 71.532 24.384C73.236 25.704 74.148 27.552 74.268 29.928H67.608C67.56 29.112 67.26 28.476 66.708 28.02C66.156 27.54 65.448 27.3 64.584 27.3C63.84 27.3 63.24 27.504 62.784 27.912C62.328 28.296 62.1 28.86 62.1 29.604C62.1 30.42 62.484 31.056 63.252 31.512C64.02 31.968 65.22 32.46 66.852 32.988C68.484 33.54 69.804 34.068 70.812 34.572C71.844 35.076 72.732 35.808 73.476 36.768C74.22 37.728 74.592 38.964 74.592 40.476C74.592 41.916 74.22 43.224 73.476 44.4C72.756 45.576 71.7 46.512 70.308 47.208C68.916 47.904 67.272 48.252 65.376 48.252ZM97.3164 37.632C97.3164 38.208 97.2804 38.808 97.2084 39.432H83.2764C83.3724 40.68 83.7684 41.64 84.4644 42.312C85.1844 42.96 86.0604 43.284 87.0924 43.284C88.6284 43.284 89.6964 42.636 90.2964 41.34H96.8484C96.5124 42.66 95.9004 43.848 95.0124 44.904C94.1484 45.96 93.0564 46.788 91.7364 47.388C90.4164 47.988 88.9404 48.288 87.3084 48.288C85.3404 48.288 83.5884 47.868 82.0524 47.028C80.5164 46.188 79.3164 44.988 78.4524 43.428C77.5884 41.868 77.1564 40.044 77.1564 37.956C77.1564 35.868 77.5764 34.044 78.4164 32.484C79.2804 30.924 80.4804 29.724 82.0164 28.884C83.5524 28.044 85.3164 27.624 87.3084 27.624C89.2524 27.624 90.9804 28.032 92.4924 28.848C94.0044 29.664 95.1804 30.828 96.0204 32.34C96.8844 33.852 97.3164 35.616 97.3164 37.632ZM91.0164 36.012C91.0164 34.956 90.6564 34.116 89.9364 33.492C89.2164 32.868 88.3164 32.556 87.2364 32.556C86.2044 32.556 85.3284 32.856 84.6084 33.456C83.9124 34.056 83.4804 34.908 83.3124 36.012H91.0164ZM111.76 42.78V48H108.628C106.396 48 104.656 47.46 103.408 46.38C102.16 45.276 101.536 43.488 101.536 41.016V33.024H99.088V27.912H101.536V23.016H107.692V27.912H111.724V33.024H107.692V41.088C107.692 41.688 107.836 42.12 108.124 42.384C108.412 42.648 108.892 42.78 109.564 42.78H111.76ZM126.385 42.78V48H123.253C121.021 48 119.281 47.46 118.033 46.38C116.785 45.276 116.161 43.488 116.161 41.016V33.024H113.713V27.912H116.161V23.016H122.317V27.912H126.349V33.024H122.317V41.088C122.317 41.688 122.461 42.12 122.749 42.384C123.037 42.648 123.517 42.78 124.189 42.78H126.385ZM132.91 25.824C131.83 25.824 130.942 25.512 130.246 24.888C129.574 24.24 129.238 23.448 129.238 22.512C129.238 21.552 129.574 20.76 130.246 20.136C130.942 19.488 131.83 19.164 132.91 19.164C133.966 19.164 134.83 19.488 135.502 20.136C136.198 20.76 136.546 21.552 136.546 22.512C136.546 23.448 136.198 24.24 135.502 24.888C134.83 25.512 133.966 25.824 132.91 25.824ZM135.97 27.912V48H129.814V27.912H135.97ZM152.671 27.696C155.023 27.696 156.895 28.464 158.287 30C159.703 31.512 160.411 33.6 160.411 36.264V48H154.291V37.092C154.291 35.748 153.943 34.704 153.247 33.96C152.551 33.216 151.615 32.844 150.439 32.844C149.263 32.844 148.327 33.216 147.631 33.96C146.935 34.704 146.587 35.748 146.587 37.092V48H140.431V27.912H146.587V30.576C147.211 29.688 148.051 28.992 149.107 28.488C150.163 27.96 151.351 27.696 152.671 27.696ZM172.321 27.624C173.737 27.624 174.973 27.912 176.029 28.488C177.109 29.064 177.937 29.82 178.513 30.756V27.912H184.669V47.964C184.669 49.812 184.297 51.48 183.553 52.968C182.833 54.48 181.717 55.68 180.205 56.568C178.717 57.456 176.857 57.9 174.625 57.9C171.649 57.9 169.237 57.192 167.389 55.776C165.541 54.384 164.485 52.488 164.221 50.088H170.305C170.497 50.856 170.953 51.456 171.673 51.888C172.393 52.344 173.281 52.572 174.337 52.572C175.609 52.572 176.617 52.2 177.361 51.456C178.129 50.736 178.513 49.572 178.513 47.964V45.12C177.913 46.056 177.085 46.824 176.029 47.424C174.973 48 173.737 48.288 172.321 48.288C170.665 48.288 169.165 47.868 167.821 47.028C166.477 46.164 165.409 44.952 164.617 43.392C163.849 41.808 163.465 39.984 163.465 37.92C163.465 35.856 163.849 34.044 164.617 32.484C165.409 30.924 166.477 29.724 167.821 28.884C169.165 28.044 170.665 27.624 172.321 27.624ZM178.513 37.956C178.513 36.42 178.081 35.208 177.217 34.32C176.377 33.432 175.345 32.988 174.121 32.988C172.897 32.988 171.853 33.432 170.989 34.32C170.149 35.184 169.729 36.384 169.729 37.92C169.729 39.456 170.149 40.68 170.989 41.592C171.853 42.48 172.897 42.924 174.121 42.924C175.345 42.924 176.377 42.48 177.217 41.592C178.081 40.704 178.513 39.492 178.513 37.956ZM197.295 48.288C195.543 48.288 193.983 47.988 192.615 47.388C191.247 46.788 190.167 45.972 189.375 44.94C188.583 43.884 188.139 42.708 188.043 41.412H194.127C194.199 42.108 194.523 42.672 195.099 43.104C195.675 43.536 196.383 43.752 197.223 43.752C197.991 43.752 198.579 43.608 198.987 43.32C199.419 43.008 199.635 42.612 199.635 42.132C199.635 41.556 199.335 41.136 198.735 40.872C198.135 40.584 197.163 40.272 195.819 39.936C194.379 39.6 193.179 39.252 192.219 38.892C191.259 38.508 190.431 37.92 189.735 37.128C189.039 36.312 188.691 35.22 188.691 33.852C188.691 32.7 189.003 31.656 189.627 30.72C190.275 29.76 191.211 29.004 192.435 28.452C193.683 27.9 195.159 27.624 196.863 27.624C199.383 27.624 201.363 28.248 202.803 29.496C204.267 30.744 205.107 32.4 205.323 34.464H199.635C199.539 33.768 199.227 33.216 198.699 32.808C198.195 32.4 197.523 32.196 196.683 32.196C195.963 32.196 195.411 32.34 195.027 32.628C194.643 32.892 194.451 33.264 194.451 33.744C194.451 34.32 194.751 34.752 195.351 35.04C195.975 35.328 196.935 35.616 198.231 35.904C199.719 36.288 200.931 36.672 201.867 37.056C202.803 37.416 203.619 38.016 204.315 38.856C205.035 39.672 205.407 40.776 205.431 42.168C205.431 43.344 205.095 44.4 204.423 45.336C203.775 46.248 202.827 46.968 201.579 47.496C200.355 48.024 198.927 48.288 197.295 48.288Z" fill="#0B304B"/>
</svg>
