<svg width="360" height="800" viewBox="0 0 360 800" fill="none" xmlns="http://www.w3.org/2000/svg">
<rect width="360" height="800" fill="#F5F5F5"/>
<rect width="360" height="70" fill="#FED06E"/>
<path d="M55.188 35.328C55.188 32.832 55.728 30.612 56.808 28.668C57.888 26.7 59.388 25.176 61.308 24.096C63.252 22.992 65.448 22.44 67.896 22.44C70.896 22.44 73.464 23.232 75.6 24.816C77.736 26.4 79.164 28.56 79.884 31.296H73.116C72.612 30.24 71.892 29.436 70.956 28.884C70.044 28.332 69 28.056 67.824 28.056C65.928 28.056 64.392 28.716 63.216 30.036C62.04 31.356 61.452 33.12 61.452 35.328C61.452 37.536 62.04 39.3 63.216 40.62C64.392 41.94 65.928 42.6 67.824 42.6C69 42.6 70.044 42.324 70.956 41.772C71.892 41.22 72.612 40.416 73.116 39.36H79.884C79.164 42.096 77.736 44.256 75.6 45.84C73.464 47.4 70.896 48.18 67.896 48.18C65.448 48.18 63.252 47.64 61.308 46.56C59.388 45.456 57.888 43.932 56.808 41.988C55.728 40.044 55.188 37.824 55.188 35.328ZM92.7979 48.288C90.8299 48.288 89.0539 47.868 87.4699 47.028C85.9099 46.188 84.6739 44.988 83.7619 43.428C82.8739 41.868 82.4299 40.044 82.4299 37.956C82.4299 35.892 82.8859 34.08 83.7979 32.52C84.7099 30.936 85.9579 29.724 87.5419 28.884C89.1259 28.044 90.9019 27.624 92.8699 27.624C94.8379 27.624 96.6139 28.044 98.1979 28.884C99.7819 29.724 101.03 30.936 101.942 32.52C102.854 34.08 103.31 35.892 103.31 37.956C103.31 40.02 102.842 41.844 101.906 43.428C100.994 44.988 99.7339 46.188 98.1259 47.028C96.5419 47.868 94.7659 48.288 92.7979 48.288ZM92.7979 42.96C93.9739 42.96 94.9699 42.528 95.7859 41.664C96.6259 40.8 97.0459 39.564 97.0459 37.956C97.0459 36.348 96.6379 35.112 95.8219 34.248C95.0299 33.384 94.0459 32.952 92.8699 32.952C91.6699 32.952 90.6739 33.384 89.8819 34.248C89.0899 35.088 88.6939 36.324 88.6939 37.956C88.6939 39.564 89.0779 40.8 89.8459 41.664C90.6379 42.528 91.6219 42.96 92.7979 42.96ZM118.816 27.696C121.168 27.696 123.04 28.464 124.432 30C125.848 31.512 126.556 33.6 126.556 36.264V48H120.436V37.092C120.436 35.748 120.088 34.704 119.392 33.96C118.696 33.216 117.76 32.844 116.584 32.844C115.408 32.844 114.472 33.216 113.776 33.96C113.08 34.704 112.732 35.748 112.732 37.092V48H106.576V27.912H112.732V30.576C113.356 29.688 114.196 28.992 115.252 28.488C116.308 27.96 117.496 27.696 118.816 27.696ZM140.914 33.024H137.602V48H131.446V33.024H129.214V27.912H131.446V27.336C131.446 24.864 132.154 22.992 133.57 21.72C134.986 20.424 137.062 19.776 139.798 19.776C140.254 19.776 140.59 19.788 140.806 19.812V25.032C139.63 24.96 138.802 25.128 138.322 25.536C137.842 25.944 137.602 26.676 137.602 27.732V27.912H140.914V33.024ZM146.902 25.824C145.822 25.824 144.934 25.512 144.238 24.888C143.566 24.24 143.23 23.448 143.23 22.512C143.23 21.552 143.566 20.76 144.238 20.136C144.934 19.488 145.822 19.164 146.902 19.164C147.958 19.164 148.822 19.488 149.494 20.136C150.19 20.76 150.538 21.552 150.538 22.512C150.538 23.448 150.19 24.24 149.494 24.888C148.822 25.512 147.958 25.824 146.902 25.824ZM149.962 27.912V48H143.806V27.912H149.962ZM160.579 31.26C161.299 30.156 162.199 29.292 163.279 28.668C164.359 28.02 165.559 27.696 166.879 27.696V34.212H165.187C163.651 34.212 162.499 34.548 161.731 35.22C160.963 35.868 160.579 37.02 160.579 38.676V48H154.423V27.912H160.579V31.26ZM195.454 27.696C197.95 27.696 199.93 28.452 201.394 29.964C202.882 31.476 203.626 33.576 203.626 36.264V48H197.506V37.092C197.506 35.796 197.158 34.8 196.462 34.104C195.79 33.384 194.854 33.024 193.654 33.024C192.454 33.024 191.506 33.384 190.81 34.104C190.138 34.8 189.802 35.796 189.802 37.092V48H183.682V37.092C183.682 35.796 183.334 34.8 182.638 34.104C181.966 33.384 181.03 33.024 179.83 33.024C178.63 33.024 177.682 33.384 176.986 34.104C176.314 34.8 175.978 35.796 175.978 37.092V48H169.822V27.912H175.978V30.432C176.602 29.592 177.418 28.932 178.426 28.452C179.434 27.948 180.574 27.696 181.846 27.696C183.358 27.696 184.702 28.02 185.878 28.668C187.078 29.316 188.014 30.24 188.686 31.44C189.382 30.336 190.33 29.436 191.53 28.74C192.73 28.044 194.038 27.696 195.454 27.696Z" fill="#0B304B"/>
</svg>
