<svg width="360" height="800" viewBox="0 0 360 800" fill="none" xmlns="http://www.w3.org/2000/svg">
<rect width="360" height="800" fill="#F5F5F5"/>
<rect width="360" height="70" fill="#FED06E"/>
<path d="M66.42 22.512C69.084 22.512 71.412 23.052 73.404 24.132C75.42 25.212 76.968 26.712 78.048 28.632C79.128 30.552 79.668 32.736 79.668 35.184C79.668 37.608 79.128 39.792 78.048 41.736C76.968 43.68 75.42 45.216 73.404 46.344C71.412 47.448 69.084 48 66.42 48H55.8V22.512H66.42ZM65.7 40.872C67.5 40.872 68.928 40.38 69.984 39.396C71.04 38.412 71.568 37.008 71.568 35.184C71.568 33.36 71.04 31.956 69.984 30.972C68.928 29.988 67.5 29.496 65.7 29.496H63.792V40.872H65.7ZM92.2019 48.252C90.1619 48.252 88.3259 47.832 86.6939 46.992C85.0619 46.152 83.7779 44.952 82.8419 43.392C81.9299 41.808 81.4739 39.96 81.4739 37.848C81.4739 35.736 81.9299 33.9 82.8419 32.34C83.7779 30.756 85.0619 29.544 86.6939 28.704C88.3259 27.864 90.1619 27.444 92.2019 27.444C94.2419 27.444 96.0779 27.864 97.7099 28.704C99.3419 29.544 100.614 30.756 101.526 32.34C102.462 33.9 102.93 35.736 102.93 37.848C102.93 39.96 102.462 41.808 101.526 43.392C100.614 44.952 99.3419 46.152 97.7099 46.992C96.0779 47.832 94.2419 48.252 92.2019 48.252ZM92.2019 41.34C92.9459 41.34 93.5699 41.052 94.0739 40.476C94.5779 39.876 94.8299 39 94.8299 37.848C94.8299 36.696 94.5779 35.832 94.0739 35.256C93.5699 34.656 92.9459 34.356 92.2019 34.356C91.4579 34.356 90.8339 34.656 90.3299 35.256C89.8259 35.832 89.5739 36.696 89.5739 37.848C89.5739 39 89.8139 39.876 90.2939 40.476C90.7979 41.052 91.4339 41.34 92.2019 41.34ZM119.661 27.552C121.989 27.552 123.801 28.332 125.097 29.892C126.417 31.452 127.077 33.564 127.077 36.228V48H119.121V37.236C119.121 36.276 118.857 35.52 118.329 34.968C117.825 34.392 117.141 34.104 116.277 34.104C115.389 34.104 114.693 34.392 114.189 34.968C113.685 35.52 113.433 36.276 113.433 37.236V48H105.441V27.696H113.433V30.792C114.057 29.832 114.885 29.052 115.917 28.452C116.973 27.852 118.221 27.552 119.661 27.552ZM152.034 27.696V48H144.042V44.904C143.418 45.864 142.578 46.644 141.522 47.244C140.49 47.844 139.254 48.144 137.814 48.144C135.486 48.144 133.662 47.364 132.342 45.804C131.046 44.244 130.398 42.132 130.398 39.468V27.696H138.354V38.46C138.354 39.42 138.606 40.188 139.11 40.764C139.638 41.316 140.334 41.592 141.198 41.592C142.086 41.592 142.782 41.316 143.286 40.764C143.79 40.188 144.042 39.42 144.042 38.46V27.696H152.034ZM168.28 41.196V48H165.256C159.688 48 156.904 45.228 156.904 39.684V34.356H154.384V27.696H156.904V22.8H164.896V27.696H168.208V34.356H164.896V39.828C164.896 40.308 165.004 40.656 165.22 40.872C165.46 41.088 165.844 41.196 166.372 41.196H168.28ZM173.411 22.512H181.331L177.083 33.132H171.827L173.411 22.512ZM193.965 48.252C192.045 48.252 190.341 47.94 188.853 47.316C187.389 46.692 186.225 45.828 185.361 44.724C184.497 43.62 184.005 42.372 183.885 40.98H191.553C191.649 41.58 191.901 42.024 192.309 42.312C192.741 42.6 193.281 42.744 193.929 42.744C194.337 42.744 194.661 42.66 194.901 42.492C195.141 42.3 195.261 42.072 195.261 41.808C195.261 41.352 195.009 41.028 194.505 40.836C194.001 40.644 193.149 40.428 191.949 40.188C190.485 39.9 189.273 39.588 188.313 39.252C187.377 38.916 186.549 38.34 185.829 37.524C185.133 36.708 184.785 35.58 184.785 34.14C184.785 32.892 185.109 31.764 185.757 30.756C186.429 29.724 187.413 28.92 188.709 28.344C190.005 27.744 191.577 27.444 193.425 27.444C196.161 27.444 198.297 28.116 199.833 29.46C201.393 30.804 202.329 32.556 202.641 34.716H195.549C195.429 34.164 195.177 33.744 194.793 33.456C194.409 33.144 193.893 32.988 193.245 32.988C192.837 32.988 192.525 33.072 192.309 33.24C192.093 33.384 191.985 33.612 191.985 33.924C191.985 34.332 192.237 34.644 192.741 34.86C193.245 35.052 194.049 35.256 195.153 35.472C196.617 35.76 197.853 36.084 198.861 36.444C199.869 36.804 200.745 37.428 201.489 38.316C202.233 39.18 202.605 40.38 202.605 41.916C202.605 43.116 202.257 44.196 201.561 45.156C200.865 46.116 199.857 46.872 198.537 47.424C197.241 47.976 195.717 48.252 193.965 48.252ZM226.114 27.552C228.442 27.552 230.254 28.332 231.55 29.892C232.87 31.452 233.53 33.564 233.53 36.228V48H225.574V37.236C225.574 36.276 225.31 35.52 224.782 34.968C224.278 34.392 223.594 34.104 222.73 34.104C221.842 34.104 221.146 34.392 220.642 34.968C220.138 35.52 219.886 36.276 219.886 37.236V48H211.894V27.696H219.886V30.792C220.51 29.832 221.338 29.052 222.37 28.452C223.426 27.852 224.674 27.552 226.114 27.552ZM235.915 37.848C235.915 35.712 236.275 33.864 236.995 32.304C237.739 30.72 238.747 29.52 240.019 28.704C241.291 27.864 242.719 27.444 244.303 27.444C245.623 27.444 246.763 27.72 247.723 28.272C248.683 28.8 249.415 29.532 249.919 30.468V27.696H257.875V48H249.919V45.228C249.415 46.164 248.683 46.908 247.723 47.46C246.763 47.988 245.623 48.252 244.303 48.252C242.719 48.252 241.291 47.844 240.019 47.028C238.747 46.188 237.739 44.988 236.995 43.428C236.275 41.844 235.915 39.984 235.915 37.848ZM249.919 37.848C249.919 36.768 249.643 35.928 249.091 35.328C248.539 34.728 247.831 34.428 246.967 34.428C246.103 34.428 245.395 34.728 244.843 35.328C244.291 35.928 244.015 36.768 244.015 37.848C244.015 38.928 244.291 39.768 244.843 40.368C245.395 40.968 246.103 41.268 246.967 41.268C247.831 41.268 248.539 40.968 249.091 40.368C249.643 39.768 249.919 38.928 249.919 37.848ZM288.572 27.552C291.164 27.552 293.168 28.332 294.584 29.892C296.024 31.452 296.744 33.564 296.744 36.228V48H288.788V37.236C288.788 36.372 288.524 35.7 287.996 35.22C287.492 34.716 286.808 34.464 285.944 34.464C285.056 34.464 284.36 34.716 283.856 35.22C283.352 35.7 283.1 36.372 283.1 37.236V48H275.144V37.236C275.144 36.372 274.88 35.7 274.352 35.22C273.848 34.716 273.164 34.464 272.3 34.464C271.412 34.464 270.716 34.716 270.212 35.22C269.708 35.7 269.456 36.372 269.456 37.236V48H261.464V27.696H269.456V30.432C270.032 29.568 270.812 28.872 271.796 28.344C272.804 27.816 273.98 27.552 275.324 27.552C276.788 27.552 278.084 27.876 279.212 28.524C280.34 29.148 281.24 30.036 281.912 31.188C282.656 30.132 283.604 29.268 284.756 28.596C285.908 27.9 287.18 27.552 288.572 27.552ZM319.862 37.668C319.862 38.22 319.826 38.748 319.754 39.252H306.902C307.022 41.004 307.754 41.88 309.098 41.88C309.962 41.88 310.586 41.484 310.97 40.692H319.43C319.142 42.132 318.53 43.428 317.594 44.58C316.682 45.708 315.518 46.608 314.102 47.28C312.71 47.928 311.174 48.252 309.494 48.252C307.478 48.252 305.678 47.832 304.094 46.992C302.534 46.152 301.31 44.952 300.422 43.392C299.558 41.808 299.126 39.96 299.126 37.848C299.126 35.736 299.558 33.9 300.422 32.34C301.31 30.756 302.534 29.544 304.094 28.704C305.678 27.864 307.478 27.444 309.494 27.444C311.51 27.444 313.298 27.864 314.858 28.704C316.442 29.52 317.666 30.696 318.53 32.232C319.418 33.768 319.862 35.58 319.862 37.668ZM311.762 35.76C311.762 35.088 311.546 34.584 311.114 34.248C310.682 33.888 310.142 33.708 309.494 33.708C308.078 33.708 307.25 34.392 307.01 35.76H311.762Z" fill="#0B304B"/>
</svg>
