<svg width="676" height="1503" viewBox="0 0 676 1503" fill="none" xmlns="http://www.w3.org/2000/svg">
<g clip-path="url(#clip0_93_1531)">
<rect width="676" height="1503" fill="#F5F5F5"/>
<path d="M0 0C271.414 0 149.193 562.449 695 562.449V1505H0V0Z" fill="#FED06E"/>
<g filter="url(#filter0_d_93_1531)">
<rect x="101" y="684" width="497" height="46" rx="6" fill="#FFE6B1" shape-rendering="crispEdges"/>
<path d="M120.36 700.54V705.2H125.44V706.7H120.36V711.5H126.04V713H118.54V699.04H126.04V700.54H120.36ZM134.134 701.84C135.467 701.84 136.547 702.247 137.374 703.06C138.201 703.86 138.614 705.02 138.614 706.54V713H136.814V706.8C136.814 705.707 136.541 704.873 135.994 704.3C135.447 703.713 134.701 703.42 133.754 703.42C132.794 703.42 132.027 703.72 131.454 704.32C130.894 704.92 130.614 705.793 130.614 706.94V713H128.794V702.04H130.614V703.6C130.974 703.04 131.461 702.607 132.074 702.3C132.701 701.993 133.387 701.84 134.134 701.84ZM143.807 703.54V710C143.807 710.533 143.92 710.913 144.147 711.14C144.374 711.353 144.767 711.46 145.327 711.46H146.667V713H145.027C144.014 713 143.254 712.767 142.747 712.3C142.24 711.833 141.987 711.067 141.987 710V703.54H140.567V702.04H141.987V699.28H143.807V702.04H146.667V703.54H143.807ZM158.872 707.1C158.872 707.447 158.852 707.813 158.812 708.2H150.052C150.119 709.28 150.485 710.127 151.152 710.74C151.832 711.34 152.652 711.64 153.612 711.64C154.399 711.64 155.052 711.46 155.572 711.1C156.105 710.727 156.479 710.233 156.692 709.62H158.652C158.359 710.673 157.772 711.533 156.892 712.2C156.012 712.853 154.919 713.18 153.612 713.18C152.572 713.18 151.639 712.947 150.812 712.48C149.999 712.013 149.359 711.353 148.892 710.5C148.425 709.633 148.192 708.633 148.192 707.5C148.192 706.367 148.419 705.373 148.872 704.52C149.325 703.667 149.959 703.013 150.772 702.56C151.599 702.093 152.545 701.86 153.612 701.86C154.652 701.86 155.572 702.087 156.372 702.54C157.172 702.993 157.785 703.62 158.212 704.42C158.652 705.207 158.872 706.1 158.872 707.1ZM156.992 706.72C156.992 706.027 156.839 705.433 156.532 704.94C156.225 704.433 155.805 704.053 155.272 703.8C154.752 703.533 154.172 703.4 153.532 703.4C152.612 703.4 151.825 703.693 151.172 704.28C150.532 704.867 150.165 705.68 150.072 706.72H156.992ZM163.094 703.82C163.414 703.193 163.868 702.707 164.454 702.36C165.054 702.013 165.781 701.84 166.634 701.84V703.72H166.154C164.114 703.72 163.094 704.827 163.094 707.04V713H161.274V702.04H163.094V703.82ZM183.507 702.04L176.907 718.16H175.027L177.187 712.88L172.767 702.04H174.787L178.227 710.92L181.627 702.04H183.507ZM190.117 713.18C189.09 713.18 188.157 712.947 187.317 712.48C186.49 712.013 185.837 711.353 185.357 710.5C184.89 709.633 184.657 708.633 184.657 707.5C184.657 706.38 184.897 705.393 185.377 704.54C185.87 703.673 186.537 703.013 187.377 702.56C188.217 702.093 189.157 701.86 190.197 701.86C191.237 701.86 192.177 702.093 193.017 702.56C193.857 703.013 194.517 703.667 194.997 704.52C195.49 705.373 195.737 706.367 195.737 707.5C195.737 708.633 195.484 709.633 194.977 710.5C194.484 711.353 193.81 712.013 192.957 712.48C192.104 712.947 191.157 713.18 190.117 713.18ZM190.117 711.58C190.77 711.58 191.384 711.427 191.957 711.12C192.53 710.813 192.99 710.353 193.337 709.74C193.697 709.127 193.877 708.38 193.877 707.5C193.877 706.62 193.704 705.873 193.357 705.26C193.01 704.647 192.557 704.193 191.997 703.9C191.437 703.593 190.83 703.44 190.177 703.44C189.51 703.44 188.897 703.593 188.337 703.9C187.79 704.193 187.35 704.647 187.017 705.26C186.684 705.873 186.517 706.62 186.517 707.5C186.517 708.393 186.677 709.147 186.997 709.76C187.33 710.373 187.77 710.833 188.317 711.14C188.864 711.433 189.464 711.58 190.117 711.58ZM207.85 702.04V713H206.03V711.38C205.683 711.94 205.197 712.38 204.57 712.7C203.957 713.007 203.277 713.16 202.53 713.16C201.677 713.16 200.91 712.987 200.23 712.64C199.55 712.28 199.01 711.747 198.61 711.04C198.223 710.333 198.03 709.473 198.03 708.46V702.04H199.83V708.22C199.83 709.3 200.103 710.133 200.65 710.72C201.197 711.293 201.943 711.58 202.89 711.58C203.863 711.58 204.63 711.28 205.19 710.68C205.75 710.08 206.03 709.207 206.03 708.06V702.04H207.85ZM212.743 703.82C213.063 703.193 213.516 702.707 214.103 702.36C214.703 702.013 215.429 701.84 216.283 701.84V703.72H215.803C213.763 703.72 212.743 704.827 212.743 707.04V713H210.923V702.04H212.743V703.82ZM225.536 698.2V713H223.716V698.2H225.536ZM233.418 713.18C232.391 713.18 231.458 712.947 230.618 712.48C229.791 712.013 229.138 711.353 228.658 710.5C228.191 709.633 227.958 708.633 227.958 707.5C227.958 706.38 228.198 705.393 228.678 704.54C229.171 703.673 229.838 703.013 230.678 702.56C231.518 702.093 232.458 701.86 233.498 701.86C234.538 701.86 235.478 702.093 236.318 702.56C237.158 703.013 237.818 703.667 238.298 704.52C238.791 705.373 239.038 706.367 239.038 707.5C239.038 708.633 238.784 709.633 238.278 710.5C237.784 711.353 237.111 712.013 236.258 712.48C235.404 712.947 234.458 713.18 233.418 713.18ZM233.418 711.58C234.071 711.58 234.684 711.427 235.258 711.12C235.831 710.813 236.291 710.353 236.638 709.74C236.998 709.127 237.178 708.38 237.178 707.5C237.178 706.62 237.004 705.873 236.658 705.26C236.311 704.647 235.858 704.193 235.298 703.9C234.738 703.593 234.131 703.44 233.478 703.44C232.811 703.44 232.198 703.593 231.638 703.9C231.091 704.193 230.651 704.647 230.318 705.26C229.984 705.873 229.818 706.62 229.818 707.5C229.818 708.393 229.978 709.147 230.298 709.76C230.631 710.373 231.071 710.833 231.618 711.14C232.164 711.433 232.764 711.58 233.418 711.58ZM245.951 701.86C246.897 701.86 247.724 702.067 248.431 702.48C249.151 702.893 249.684 703.413 250.031 704.04V702.04H251.871V713.24C251.871 714.24 251.657 715.127 251.231 715.9C250.804 716.687 250.191 717.3 249.391 717.74C248.604 718.18 247.684 718.4 246.631 718.4C245.191 718.4 243.991 718.06 243.031 717.38C242.071 716.7 241.504 715.773 241.331 714.6H243.131C243.331 715.267 243.744 715.8 244.371 716.2C244.997 716.613 245.751 716.82 246.631 716.82C247.631 716.82 248.444 716.507 249.071 715.88C249.711 715.253 250.031 714.373 250.031 713.24V710.94C249.671 711.58 249.137 712.113 248.431 712.54C247.724 712.967 246.897 713.18 245.951 713.18C244.977 713.18 244.091 712.94 243.291 712.46C242.504 711.98 241.884 711.307 241.431 710.44C240.977 709.573 240.751 708.587 240.751 707.48C240.751 706.36 240.977 705.38 241.431 704.54C241.884 703.687 242.504 703.027 243.291 702.56C244.091 702.093 244.977 701.86 245.951 701.86ZM250.031 707.5C250.031 706.673 249.864 705.953 249.531 705.34C249.197 704.727 248.744 704.26 248.171 703.94C247.611 703.607 246.991 703.44 246.311 703.44C245.631 703.44 245.011 703.6 244.451 703.92C243.891 704.24 243.444 704.707 243.111 705.32C242.777 705.933 242.611 706.653 242.611 707.48C242.611 708.32 242.777 709.053 243.111 709.68C243.444 710.293 243.891 710.767 244.451 711.1C245.011 711.42 245.631 711.58 246.311 711.58C246.991 711.58 247.611 711.42 248.171 711.1C248.744 710.767 249.197 710.293 249.531 709.68C249.864 709.053 250.031 708.327 250.031 707.5ZM255.886 700.26C255.54 700.26 255.246 700.14 255.006 699.9C254.766 699.66 254.646 699.367 254.646 699.02C254.646 698.673 254.766 698.38 255.006 698.14C255.246 697.9 255.54 697.78 255.886 697.78C256.22 697.78 256.5 697.9 256.726 698.14C256.966 698.38 257.086 698.673 257.086 699.02C257.086 699.367 256.966 699.66 256.726 699.9C256.5 700.14 256.22 700.26 255.886 700.26ZM256.766 702.04V713H254.946V702.04H256.766ZM265.208 701.84C266.541 701.84 267.621 702.247 268.448 703.06C269.275 703.86 269.688 705.02 269.688 706.54V713H267.888V706.8C267.888 705.707 267.615 704.873 267.068 704.3C266.521 703.713 265.775 703.42 264.828 703.42C263.868 703.42 263.101 703.72 262.528 704.32C261.968 704.92 261.688 705.793 261.688 706.94V713H259.868V702.04H261.688V703.6C262.048 703.04 262.535 702.607 263.148 702.3C263.775 701.993 264.461 701.84 265.208 701.84Z" fill="#0B304B"/>
<rect x="101.5" y="684.5" width="496" height="45" rx="5.5" stroke="#FF6187" shape-rendering="crispEdges"/>
</g>
<g filter="url(#filter1_d_93_1531)">
<rect x="99" y="774" width="497" height="46" rx="6" fill="#FFE6B1" shape-rendering="crispEdges"/>
<path d="M119.1 799.78C118.42 799.78 117.84 799.547 117.36 799.08C116.893 798.6 116.66 798.02 116.66 797.34C116.66 796.647 116.893 796.067 117.36 795.6C117.84 795.12 118.42 794.88 119.1 794.88C119.793 794.88 120.38 795.12 120.86 795.6C121.34 796.067 121.58 796.647 121.58 797.34C121.58 798.02 121.34 798.6 120.86 799.08C120.38 799.547 119.793 799.78 119.1 799.78ZM127.342 799.78C126.662 799.78 126.082 799.547 125.602 799.08C125.136 798.6 124.902 798.02 124.902 797.34C124.902 796.647 125.136 796.067 125.602 795.6C126.082 795.12 126.662 794.88 127.342 794.88C128.036 794.88 128.622 795.12 129.102 795.6C129.582 796.067 129.822 796.647 129.822 797.34C129.822 798.02 129.582 798.6 129.102 799.08C128.622 799.547 128.036 799.78 127.342 799.78ZM135.584 799.78C134.904 799.78 134.324 799.547 133.844 799.08C133.378 798.6 133.144 798.02 133.144 797.34C133.144 796.647 133.378 796.067 133.844 795.6C134.324 795.12 134.904 794.88 135.584 794.88C136.278 794.88 136.864 795.12 137.344 795.6C137.824 796.067 138.064 796.647 138.064 797.34C138.064 798.02 137.824 798.6 137.344 799.08C136.864 799.547 136.278 799.78 135.584 799.78ZM143.827 799.78C143.147 799.78 142.567 799.547 142.087 799.08C141.62 798.6 141.387 798.02 141.387 797.34C141.387 796.647 141.62 796.067 142.087 795.6C142.567 795.12 143.147 794.88 143.827 794.88C144.52 794.88 145.107 795.12 145.587 795.6C146.067 796.067 146.307 796.647 146.307 797.34C146.307 798.02 146.067 798.6 145.587 799.08C145.107 799.547 144.52 799.78 143.827 799.78ZM152.069 799.78C151.389 799.78 150.809 799.547 150.329 799.08C149.862 798.6 149.629 798.02 149.629 797.34C149.629 796.647 149.862 796.067 150.329 795.6C150.809 795.12 151.389 794.88 152.069 794.88C152.762 794.88 153.349 795.12 153.829 795.6C154.309 796.067 154.549 796.647 154.549 797.34C154.549 798.02 154.309 798.6 153.829 799.08C153.349 799.547 152.762 799.78 152.069 799.78ZM160.311 799.78C159.631 799.78 159.051 799.547 158.571 799.08C158.104 798.6 157.871 798.02 157.871 797.34C157.871 796.647 158.104 796.067 158.571 795.6C159.051 795.12 159.631 794.88 160.311 794.88C161.004 794.88 161.591 795.12 162.071 795.6C162.551 796.067 162.791 796.647 162.791 797.34C162.791 798.02 162.551 798.6 162.071 799.08C161.591 799.547 161.004 799.78 160.311 799.78ZM168.553 799.78C167.873 799.78 167.293 799.547 166.813 799.08C166.346 798.6 166.113 798.02 166.113 797.34C166.113 796.647 166.346 796.067 166.813 795.6C167.293 795.12 167.873 794.88 168.553 794.88C169.246 794.88 169.833 795.12 170.313 795.6C170.793 796.067 171.033 796.647 171.033 797.34C171.033 798.02 170.793 798.6 170.313 799.08C169.833 799.547 169.246 799.78 168.553 799.78Z" fill="#0B304B"/>
<rect x="99.5" y="774.5" width="496" height="45" rx="5.5" stroke="#FF6187" shape-rendering="crispEdges"/>
</g>
<g filter="url(#filter2_d_93_1531)">
<rect x="236" y="864" width="223" height="85" rx="24" fill="#FF6187"/>
<path d="M308.829 916.189C306.543 916.189 304.653 915.658 303.159 914.596C301.683 913.516 300.882 911.941 300.756 909.871H307.128C307.218 910.969 307.704 911.518 308.586 911.518C308.91 911.518 309.18 911.446 309.396 911.302C309.63 911.14 309.747 910.897 309.747 910.573C309.747 910.123 309.504 909.763 309.018 909.493C308.532 909.205 307.776 908.881 306.75 908.521C305.526 908.089 304.509 907.666 303.699 907.252C302.907 906.838 302.223 906.235 301.647 905.443C301.071 904.651 300.792 903.634 300.81 902.392C300.81 901.15 301.125 900.097 301.755 899.233C302.403 898.351 303.276 897.685 304.374 897.235C305.49 896.785 306.741 896.56 308.127 896.56C310.467 896.56 312.321 897.1 313.689 898.18C315.075 899.26 315.804 900.781 315.876 902.743H309.423C309.405 902.203 309.27 901.816 309.018 901.582C308.766 901.348 308.46 901.231 308.1 901.231C307.848 901.231 307.641 901.321 307.479 901.501C307.317 901.663 307.236 901.897 307.236 902.203C307.236 902.635 307.47 902.995 307.938 903.283C308.424 903.553 309.189 903.886 310.233 904.282C311.439 904.732 312.429 905.164 313.203 905.578C313.995 905.992 314.679 906.568 315.255 907.306C315.831 908.044 316.119 908.971 316.119 910.087C316.119 911.257 315.831 912.31 315.255 913.246C314.679 914.164 313.842 914.884 312.744 915.406C311.646 915.928 310.341 916.189 308.829 916.189ZM321.249 899.557C320.205 899.557 319.368 899.278 318.738 898.72C318.108 898.162 317.793 897.46 317.793 896.614C317.793 895.75 318.108 895.039 318.738 894.481C319.368 893.905 320.205 893.617 321.249 893.617C322.275 893.617 323.103 893.905 323.733 894.481C324.363 895.039 324.678 895.75 324.678 896.614C324.678 897.46 324.363 898.162 323.733 898.72C323.103 899.278 322.275 899.557 321.249 899.557ZM324.219 900.772V916H318.225V900.772H324.219ZM332.407 900.583C333.397 900.583 334.252 900.79 334.972 901.204C335.692 901.6 336.241 902.149 336.619 902.851V900.772H342.586V915.73C342.586 917.152 342.325 918.448 341.803 919.618C341.281 920.788 340.435 921.724 339.265 922.426C338.113 923.128 336.628 923.479 334.81 923.479C332.362 923.479 330.418 922.903 328.978 921.751C327.556 920.617 326.746 919.069 326.548 917.107H332.434C332.596 917.899 333.244 918.295 334.378 918.295C335.08 918.295 335.629 918.115 336.025 917.755C336.421 917.395 336.619 916.72 336.619 915.73V913.921C336.241 914.623 335.692 915.181 334.972 915.595C334.252 915.991 333.397 916.189 332.407 916.189C331.219 916.189 330.148 915.883 329.194 915.271C328.24 914.641 327.484 913.741 326.926 912.571C326.386 911.383 326.116 909.988 326.116 908.386C326.116 906.784 326.386 905.398 326.926 904.228C327.484 903.04 328.24 902.14 329.194 901.528C330.148 900.898 331.219 900.583 332.407 900.583ZM336.619 908.386C336.619 907.576 336.412 906.946 335.998 906.496C335.584 906.046 335.053 905.821 334.405 905.821C333.757 905.821 333.226 906.046 332.812 906.496C332.398 906.946 332.191 907.576 332.191 908.386C332.191 909.196 332.398 909.826 332.812 910.276C333.226 910.726 333.757 910.951 334.405 910.951C335.053 910.951 335.584 910.726 335.998 910.276C336.412 909.826 336.619 909.196 336.619 908.386ZM355.943 900.664C357.689 900.664 359.048 901.249 360.02 902.419C361.01 903.589 361.505 905.173 361.505 907.171V916H355.538V907.927C355.538 907.207 355.34 906.64 354.944 906.226C354.566 905.794 354.053 905.578 353.405 905.578C352.739 905.578 352.217 905.794 351.839 906.226C351.461 906.64 351.272 907.207 351.272 907.927V916H345.278V900.772H351.272V903.094C351.74 902.374 352.361 901.789 353.135 901.339C353.927 900.889 354.863 900.664 355.943 900.664ZM371.716 899.557C370.672 899.557 369.835 899.278 369.205 898.72C368.575 898.162 368.26 897.46 368.26 896.614C368.26 895.75 368.575 895.039 369.205 894.481C369.835 893.905 370.672 893.617 371.716 893.617C372.742 893.617 373.57 893.905 374.2 894.481C374.83 895.039 375.145 895.75 375.145 896.614C375.145 897.46 374.83 898.162 374.2 898.72C373.57 899.278 372.742 899.557 371.716 899.557ZM374.686 900.772V916H368.692V900.772H374.686ZM388.058 900.664C389.804 900.664 391.163 901.249 392.135 902.419C393.125 903.589 393.62 905.173 393.62 907.171V916H387.653V907.927C387.653 907.207 387.455 906.64 387.059 906.226C386.681 905.794 386.168 905.578 385.52 905.578C384.854 905.578 384.332 905.794 383.954 906.226C383.576 906.64 383.387 907.207 383.387 907.927V916H377.393V900.772H383.387V903.094C383.855 902.374 384.476 901.789 385.25 901.339C386.042 900.889 386.978 900.664 388.058 900.664Z" fill="#0B304B"/>
</g>
<path d="M278.232 614.592H290.216V624H265.8V584.352H278.232V614.592ZM309.136 624.392C305.963 624.392 303.107 623.739 300.568 622.432C298.029 621.125 296.032 619.259 294.576 616.832C293.157 614.368 292.448 611.493 292.448 608.208C292.448 604.923 293.157 602.067 294.576 599.64C296.032 597.176 298.029 595.291 300.568 593.984C303.107 592.677 305.963 592.024 309.136 592.024C312.309 592.024 315.165 592.677 317.704 593.984C320.243 595.291 322.221 597.176 323.64 599.64C325.096 602.067 325.824 604.923 325.824 608.208C325.824 611.493 325.096 614.368 323.64 616.832C322.221 619.259 320.243 621.125 317.704 622.432C315.165 623.739 312.309 624.392 309.136 624.392ZM309.136 613.64C310.293 613.64 311.264 613.192 312.048 612.296C312.832 611.363 313.224 610 313.224 608.208C313.224 606.416 312.832 605.072 312.048 604.176C311.264 603.243 310.293 602.776 309.136 602.776C307.979 602.776 307.008 603.243 306.224 604.176C305.44 605.072 305.048 606.416 305.048 608.208C305.048 610 305.421 611.363 306.168 612.296C306.952 613.192 307.941 613.64 309.136 613.64ZM341.098 592.024C343.151 592.024 344.924 592.453 346.418 593.312C347.911 594.133 349.05 595.272 349.834 596.728V592.416H362.21V623.44C362.21 626.389 361.668 629.077 360.586 631.504C359.503 633.931 357.748 635.872 355.322 637.328C352.932 638.784 349.852 639.512 346.082 639.512C341.004 639.512 336.972 638.317 333.986 635.928C331.036 633.576 329.356 630.365 328.946 626.296H341.154C341.49 627.939 342.834 628.76 345.186 628.76C346.642 628.76 347.78 628.387 348.602 627.64C349.423 626.893 349.834 625.493 349.834 623.44V619.688C349.05 621.144 347.911 622.301 346.418 623.16C344.924 623.981 343.151 624.392 341.098 624.392C338.634 624.392 336.412 623.757 334.434 622.488C332.455 621.181 330.887 619.315 329.73 616.888C328.61 614.424 328.05 611.531 328.05 608.208C328.05 604.885 328.61 602.011 329.73 599.584C330.887 597.12 332.455 595.253 334.434 593.984C336.412 592.677 338.634 592.024 341.098 592.024ZM349.834 608.208C349.834 606.528 349.404 605.221 348.546 604.288C347.687 603.355 346.586 602.888 345.242 602.888C343.898 602.888 342.796 603.355 341.938 604.288C341.079 605.221 340.65 606.528 340.65 608.208C340.65 609.888 341.079 611.195 341.938 612.128C342.796 613.061 343.898 613.528 345.242 613.528C346.586 613.528 347.687 613.061 348.546 612.128C349.404 611.195 349.834 609.888 349.834 608.208ZM383.58 589.896C381.414 589.896 379.678 589.317 378.372 588.16C377.065 587.003 376.412 585.547 376.412 583.792C376.412 582 377.065 580.525 378.372 579.368C379.678 578.173 381.414 577.576 383.58 577.576C385.708 577.576 387.425 578.173 388.732 579.368C390.038 580.525 390.692 582 390.692 583.792C390.692 585.547 390.038 587.003 388.732 588.16C387.425 589.317 385.708 589.896 383.58 589.896ZM389.74 592.416V624H377.308V592.416H389.74ZM417.475 592.192C421.096 592.192 423.915 593.405 425.931 595.832C427.984 598.259 429.011 601.544 429.011 605.688V624H416.635V607.256C416.635 605.763 416.224 604.587 415.403 603.728C414.619 602.832 413.555 602.384 412.211 602.384C410.829 602.384 409.747 602.832 408.963 603.728C408.179 604.587 407.787 605.763 407.787 607.256V624H395.355V592.416H407.787V597.232C408.757 595.739 410.045 594.525 411.651 593.592C413.293 592.659 415.235 592.192 417.475 592.192Z" fill="#0B304B"/>
<path d="M275.112 1024.26C273.363 1024.26 271.784 1023.88 270.376 1023.14C268.989 1022.39 267.891 1021.32 267.08 1019.94C266.291 1018.55 265.896 1016.93 265.896 1015.07C265.896 1013.24 266.301 1011.63 267.112 1010.24C267.923 1008.83 269.032 1007.75 270.44 1007.01C271.848 1006.26 273.427 1005.89 275.176 1005.89C276.925 1005.89 278.504 1006.26 279.912 1007.01C281.32 1007.75 282.429 1008.83 283.24 1010.24C284.051 1011.63 284.456 1013.24 284.456 1015.07C284.456 1016.91 284.04 1018.53 283.208 1019.94C282.397 1021.32 281.277 1022.39 279.848 1023.14C278.44 1023.88 276.861 1024.26 275.112 1024.26ZM275.112 1019.52C276.157 1019.52 277.043 1019.14 277.768 1018.37C278.515 1017.6 278.888 1016.5 278.888 1015.07C278.888 1013.64 278.525 1012.54 277.8 1011.78C277.096 1011.01 276.221 1010.62 275.176 1010.62C274.109 1010.62 273.224 1011.01 272.52 1011.78C271.816 1012.52 271.464 1013.62 271.464 1015.07C271.464 1016.5 271.805 1017.6 272.488 1018.37C273.192 1019.14 274.067 1019.52 275.112 1019.52ZM292.831 1009.12C293.471 1008.14 294.271 1007.37 295.231 1006.82C296.191 1006.24 297.258 1005.95 298.431 1005.95V1011.74H296.927C295.562 1011.74 294.538 1012.04 293.855 1012.64C293.172 1013.22 292.831 1014.24 292.831 1015.71V1024H287.359V1006.14H292.831V1009.12ZM315.092 1024.26C313.534 1024.26 312.148 1023.99 310.932 1023.46C309.716 1022.92 308.756 1022.2 308.052 1021.28C307.348 1020.34 306.953 1019.3 306.868 1018.14H312.276C312.34 1018.76 312.628 1019.26 313.14 1019.65C313.652 1020.03 314.281 1020.22 315.028 1020.22C315.71 1020.22 316.233 1020.1 316.596 1019.84C316.98 1019.56 317.172 1019.21 317.172 1018.78C317.172 1018.27 316.905 1017.9 316.372 1017.66C315.838 1017.41 314.974 1017.13 313.78 1016.83C312.5 1016.53 311.433 1016.22 310.58 1015.9C309.726 1015.56 308.99 1015.04 308.372 1014.34C307.753 1013.61 307.444 1012.64 307.444 1011.42C307.444 1010.4 307.721 1009.47 308.276 1008.64C308.852 1007.79 309.684 1007.11 310.772 1006.62C311.881 1006.13 313.193 1005.89 314.708 1005.89C316.948 1005.89 318.708 1006.44 319.988 1007.55C321.289 1008.66 322.036 1010.13 322.228 1011.97H317.172C317.086 1011.35 316.809 1010.86 316.34 1010.5C315.892 1010.13 315.294 1009.95 314.548 1009.95C313.908 1009.95 313.417 1010.08 313.076 1010.34C312.734 1010.57 312.564 1010.9 312.564 1011.33C312.564 1011.84 312.83 1012.22 313.364 1012.48C313.918 1012.74 314.772 1012.99 315.924 1013.25C317.246 1013.59 318.324 1013.93 319.156 1014.27C319.988 1014.59 320.713 1015.13 321.332 1015.87C321.972 1016.6 322.302 1017.58 322.324 1018.82C322.324 1019.86 322.025 1020.8 321.428 1021.63C320.852 1022.44 320.009 1023.08 318.9 1023.55C317.812 1024.02 316.542 1024.26 315.092 1024.26ZM328.424 1004.29C327.464 1004.29 326.674 1004.01 326.056 1003.46C325.458 1002.88 325.16 1002.18 325.16 1001.34C325.16 1000.49 325.458 999.787 326.056 999.232C326.674 998.656 327.464 998.368 328.424 998.368C329.362 998.368 330.13 998.656 330.728 999.232C331.346 999.787 331.656 1000.49 331.656 1001.34C331.656 1002.18 331.346 1002.88 330.728 1003.46C330.13 1004.01 329.362 1004.29 328.424 1004.29ZM331.144 1006.14V1024H325.672V1006.14H331.144ZM341.893 1005.89C343.152 1005.89 344.25 1006.14 345.189 1006.66C346.149 1007.17 346.885 1007.84 347.397 1008.67V1006.14H352.869V1023.97C352.869 1025.61 352.538 1027.09 351.877 1028.42C351.237 1029.76 350.245 1030.83 348.901 1031.62C347.578 1032.41 345.925 1032.8 343.941 1032.8C341.296 1032.8 339.152 1032.17 337.509 1030.91C335.866 1029.67 334.928 1027.99 334.693 1025.86H340.101C340.272 1026.54 340.677 1027.07 341.317 1027.46C341.957 1027.86 342.746 1028.06 343.685 1028.06C344.816 1028.06 345.712 1027.73 346.373 1027.07C347.056 1026.43 347.397 1025.4 347.397 1023.97V1021.44C346.864 1022.27 346.128 1022.95 345.189 1023.49C344.25 1024 343.152 1024.26 341.893 1024.26C340.421 1024.26 339.088 1023.88 337.893 1023.14C336.698 1022.37 335.749 1021.29 335.045 1019.9C334.362 1018.5 334.021 1016.87 334.021 1015.04C334.021 1013.21 334.362 1011.59 335.045 1010.21C335.749 1008.82 336.698 1007.75 337.893 1007.01C339.088 1006.26 340.421 1005.89 341.893 1005.89ZM347.397 1015.07C347.397 1013.71 347.013 1012.63 346.245 1011.84C345.498 1011.05 344.581 1010.66 343.493 1010.66C342.405 1010.66 341.477 1011.05 340.709 1011.84C339.962 1012.61 339.589 1013.67 339.589 1015.04C339.589 1016.41 339.962 1017.49 340.709 1018.3C341.477 1019.09 342.405 1019.49 343.493 1019.49C344.581 1019.49 345.498 1019.09 346.245 1018.3C347.013 1017.51 347.397 1016.44 347.397 1015.07ZM367.708 1005.95C369.798 1005.95 371.462 1006.63 372.7 1008C373.958 1009.34 374.588 1011.2 374.588 1013.57V1024H369.148V1014.3C369.148 1013.11 368.838 1012.18 368.22 1011.52C367.601 1010.86 366.769 1010.53 365.724 1010.53C364.678 1010.53 363.846 1010.86 363.228 1011.52C362.609 1012.18 362.3 1013.11 362.3 1014.3V1024H356.828V1006.14H362.3V1008.51C362.854 1007.72 363.601 1007.1 364.54 1006.66C365.478 1006.19 366.534 1005.95 367.708 1005.95ZM402.804 1006.14V1024H397.332V1021.57C396.777 1022.36 396.02 1023 395.06 1023.49C394.121 1023.96 393.076 1024.19 391.924 1024.19C390.558 1024.19 389.353 1023.89 388.308 1023.3C387.262 1022.68 386.452 1021.79 385.876 1020.64C385.3 1019.49 385.012 1018.13 385.012 1016.58V1006.14H390.452V1015.84C390.452 1017.03 390.761 1017.96 391.38 1018.62C391.998 1019.29 392.83 1019.62 393.876 1019.62C394.942 1019.62 395.785 1019.29 396.404 1018.62C397.022 1017.96 397.332 1017.03 397.332 1015.84V1006.14H402.804ZM412.206 1008.67C412.739 1007.84 413.475 1007.17 414.414 1006.66C415.353 1006.14 416.451 1005.89 417.71 1005.89C419.182 1005.89 420.515 1006.26 421.71 1007.01C422.905 1007.75 423.843 1008.82 424.526 1010.21C425.23 1011.59 425.582 1013.21 425.582 1015.04C425.582 1016.87 425.23 1018.5 424.526 1019.9C423.843 1021.29 422.905 1022.37 421.71 1023.14C420.515 1023.88 419.182 1024.26 417.71 1024.26C416.473 1024.26 415.374 1024 414.414 1023.49C413.475 1022.98 412.739 1022.31 412.206 1021.5V1032.51H406.734V1006.14H412.206V1008.67ZM420.014 1015.04C420.014 1013.67 419.63 1012.61 418.862 1011.84C418.115 1011.05 417.187 1010.66 416.078 1010.66C414.99 1010.66 414.062 1011.05 413.294 1011.84C412.547 1012.63 412.174 1013.71 412.174 1015.07C412.174 1016.44 412.547 1017.51 413.294 1018.3C414.062 1019.09 414.99 1019.49 416.078 1019.49C417.166 1019.49 418.094 1019.09 418.862 1018.3C419.63 1017.49 420.014 1016.41 420.014 1015.04Z" fill="#11466C"/>
<path d="M0 996C271.414 996 149.193 1252 695 1252V1503H0V996Z" fill="#FFA048"/>
<path d="M0 0C271.414 0 146.5 562.449 695 562.449V1505H0V0Z" fill="#FED06E"/>
<g filter="url(#filter3_d_93_1531)">
<rect x="101" y="684" width="497" height="46" rx="6" fill="#FFE6B1" shape-rendering="crispEdges"/>
<path d="M120.36 700.54V705.2H125.44V706.7H120.36V711.5H126.04V713H118.54V699.04H126.04V700.54H120.36ZM134.134 701.84C135.467 701.84 136.547 702.247 137.374 703.06C138.201 703.86 138.614 705.02 138.614 706.54V713H136.814V706.8C136.814 705.707 136.541 704.873 135.994 704.3C135.447 703.713 134.701 703.42 133.754 703.42C132.794 703.42 132.027 703.72 131.454 704.32C130.894 704.92 130.614 705.793 130.614 706.94V713H128.794V702.04H130.614V703.6C130.974 703.04 131.461 702.607 132.074 702.3C132.701 701.993 133.387 701.84 134.134 701.84ZM143.807 703.54V710C143.807 710.533 143.92 710.913 144.147 711.14C144.374 711.353 144.767 711.46 145.327 711.46H146.667V713H145.027C144.014 713 143.254 712.767 142.747 712.3C142.24 711.833 141.987 711.067 141.987 710V703.54H140.567V702.04H141.987V699.28H143.807V702.04H146.667V703.54H143.807ZM158.872 707.1C158.872 707.447 158.852 707.813 158.812 708.2H150.052C150.119 709.28 150.485 710.127 151.152 710.74C151.832 711.34 152.652 711.64 153.612 711.64C154.399 711.64 155.052 711.46 155.572 711.1C156.105 710.727 156.479 710.233 156.692 709.62H158.652C158.359 710.673 157.772 711.533 156.892 712.2C156.012 712.853 154.919 713.18 153.612 713.18C152.572 713.18 151.639 712.947 150.812 712.48C149.999 712.013 149.359 711.353 148.892 710.5C148.425 709.633 148.192 708.633 148.192 707.5C148.192 706.367 148.419 705.373 148.872 704.52C149.325 703.667 149.959 703.013 150.772 702.56C151.599 702.093 152.545 701.86 153.612 701.86C154.652 701.86 155.572 702.087 156.372 702.54C157.172 702.993 157.785 703.62 158.212 704.42C158.652 705.207 158.872 706.1 158.872 707.1ZM156.992 706.72C156.992 706.027 156.839 705.433 156.532 704.94C156.225 704.433 155.805 704.053 155.272 703.8C154.752 703.533 154.172 703.4 153.532 703.4C152.612 703.4 151.825 703.693 151.172 704.28C150.532 704.867 150.165 705.68 150.072 706.72H156.992ZM163.094 703.82C163.414 703.193 163.868 702.707 164.454 702.36C165.054 702.013 165.781 701.84 166.634 701.84V703.72H166.154C164.114 703.72 163.094 704.827 163.094 707.04V713H161.274V702.04H163.094V703.82ZM183.507 702.04L176.907 718.16H175.027L177.187 712.88L172.767 702.04H174.787L178.227 710.92L181.627 702.04H183.507ZM190.117 713.18C189.09 713.18 188.157 712.947 187.317 712.48C186.49 712.013 185.837 711.353 185.357 710.5C184.89 709.633 184.657 708.633 184.657 707.5C184.657 706.38 184.897 705.393 185.377 704.54C185.87 703.673 186.537 703.013 187.377 702.56C188.217 702.093 189.157 701.86 190.197 701.86C191.237 701.86 192.177 702.093 193.017 702.56C193.857 703.013 194.517 703.667 194.997 704.52C195.49 705.373 195.737 706.367 195.737 707.5C195.737 708.633 195.484 709.633 194.977 710.5C194.484 711.353 193.81 712.013 192.957 712.48C192.104 712.947 191.157 713.18 190.117 713.18ZM190.117 711.58C190.77 711.58 191.384 711.427 191.957 711.12C192.53 710.813 192.99 710.353 193.337 709.74C193.697 709.127 193.877 708.38 193.877 707.5C193.877 706.62 193.704 705.873 193.357 705.26C193.01 704.647 192.557 704.193 191.997 703.9C191.437 703.593 190.83 703.44 190.177 703.44C189.51 703.44 188.897 703.593 188.337 703.9C187.79 704.193 187.35 704.647 187.017 705.26C186.684 705.873 186.517 706.62 186.517 707.5C186.517 708.393 186.677 709.147 186.997 709.76C187.33 710.373 187.77 710.833 188.317 711.14C188.864 711.433 189.464 711.58 190.117 711.58ZM207.85 702.04V713H206.03V711.38C205.683 711.94 205.197 712.38 204.57 712.7C203.957 713.007 203.277 713.16 202.53 713.16C201.677 713.16 200.91 712.987 200.23 712.64C199.55 712.28 199.01 711.747 198.61 711.04C198.223 710.333 198.03 709.473 198.03 708.46V702.04H199.83V708.22C199.83 709.3 200.103 710.133 200.65 710.72C201.197 711.293 201.943 711.58 202.89 711.58C203.863 711.58 204.63 711.28 205.19 710.68C205.75 710.08 206.03 709.207 206.03 708.06V702.04H207.85ZM212.743 703.82C213.063 703.193 213.516 702.707 214.103 702.36C214.703 702.013 215.429 701.84 216.283 701.84V703.72H215.803C213.763 703.72 212.743 704.827 212.743 707.04V713H210.923V702.04H212.743V703.82ZM225.536 698.2V713H223.716V698.2H225.536ZM233.418 713.18C232.391 713.18 231.458 712.947 230.618 712.48C229.791 712.013 229.138 711.353 228.658 710.5C228.191 709.633 227.958 708.633 227.958 707.5C227.958 706.38 228.198 705.393 228.678 704.54C229.171 703.673 229.838 703.013 230.678 702.56C231.518 702.093 232.458 701.86 233.498 701.86C234.538 701.86 235.478 702.093 236.318 702.56C237.158 703.013 237.818 703.667 238.298 704.52C238.791 705.373 239.038 706.367 239.038 707.5C239.038 708.633 238.784 709.633 238.278 710.5C237.784 711.353 237.111 712.013 236.258 712.48C235.404 712.947 234.458 713.18 233.418 713.18ZM233.418 711.58C234.071 711.58 234.684 711.427 235.258 711.12C235.831 710.813 236.291 710.353 236.638 709.74C236.998 709.127 237.178 708.38 237.178 707.5C237.178 706.62 237.004 705.873 236.658 705.26C236.311 704.647 235.858 704.193 235.298 703.9C234.738 703.593 234.131 703.44 233.478 703.44C232.811 703.44 232.198 703.593 231.638 703.9C231.091 704.193 230.651 704.647 230.318 705.26C229.984 705.873 229.818 706.62 229.818 707.5C229.818 708.393 229.978 709.147 230.298 709.76C230.631 710.373 231.071 710.833 231.618 711.14C232.164 711.433 232.764 711.58 233.418 711.58ZM245.951 701.86C246.897 701.86 247.724 702.067 248.431 702.48C249.151 702.893 249.684 703.413 250.031 704.04V702.04H251.871V713.24C251.871 714.24 251.657 715.127 251.231 715.9C250.804 716.687 250.191 717.3 249.391 717.74C248.604 718.18 247.684 718.4 246.631 718.4C245.191 718.4 243.991 718.06 243.031 717.38C242.071 716.7 241.504 715.773 241.331 714.6H243.131C243.331 715.267 243.744 715.8 244.371 716.2C244.997 716.613 245.751 716.82 246.631 716.82C247.631 716.82 248.444 716.507 249.071 715.88C249.711 715.253 250.031 714.373 250.031 713.24V710.94C249.671 711.58 249.137 712.113 248.431 712.54C247.724 712.967 246.897 713.18 245.951 713.18C244.977 713.18 244.091 712.94 243.291 712.46C242.504 711.98 241.884 711.307 241.431 710.44C240.977 709.573 240.751 708.587 240.751 707.48C240.751 706.36 240.977 705.38 241.431 704.54C241.884 703.687 242.504 703.027 243.291 702.56C244.091 702.093 244.977 701.86 245.951 701.86ZM250.031 707.5C250.031 706.673 249.864 705.953 249.531 705.34C249.197 704.727 248.744 704.26 248.171 703.94C247.611 703.607 246.991 703.44 246.311 703.44C245.631 703.44 245.011 703.6 244.451 703.92C243.891 704.24 243.444 704.707 243.111 705.32C242.777 705.933 242.611 706.653 242.611 707.48C242.611 708.32 242.777 709.053 243.111 709.68C243.444 710.293 243.891 710.767 244.451 711.1C245.011 711.42 245.631 711.58 246.311 711.58C246.991 711.58 247.611 711.42 248.171 711.1C248.744 710.767 249.197 710.293 249.531 709.68C249.864 709.053 250.031 708.327 250.031 707.5ZM255.886 700.26C255.54 700.26 255.246 700.14 255.006 699.9C254.766 699.66 254.646 699.367 254.646 699.02C254.646 698.673 254.766 698.38 255.006 698.14C255.246 697.9 255.54 697.78 255.886 697.78C256.22 697.78 256.5 697.9 256.726 698.14C256.966 698.38 257.086 698.673 257.086 699.02C257.086 699.367 256.966 699.66 256.726 699.9C256.5 700.14 256.22 700.26 255.886 700.26ZM256.766 702.04V713H254.946V702.04H256.766ZM265.208 701.84C266.541 701.84 267.621 702.247 268.448 703.06C269.275 703.86 269.688 705.02 269.688 706.54V713H267.888V706.8C267.888 705.707 267.615 704.873 267.068 704.3C266.521 703.713 265.775 703.42 264.828 703.42C263.868 703.42 263.101 703.72 262.528 704.32C261.968 704.92 261.688 705.793 261.688 706.94V713H259.868V702.04H261.688V703.6C262.048 703.04 262.535 702.607 263.148 702.3C263.775 701.993 264.461 701.84 265.208 701.84Z" fill="#0B304B"/>
<rect x="101.5" y="684.5" width="496" height="45" rx="5.5" stroke="#FF6187" shape-rendering="crispEdges"/>
</g>
<g filter="url(#filter4_d_93_1531)">
<rect x="99" y="774" width="497" height="46" rx="6" fill="#FFE6B1" shape-rendering="crispEdges"/>
<path d="M119.1 799.78C118.42 799.78 117.84 799.547 117.36 799.08C116.893 798.6 116.66 798.02 116.66 797.34C116.66 796.647 116.893 796.067 117.36 795.6C117.84 795.12 118.42 794.88 119.1 794.88C119.793 794.88 120.38 795.12 120.86 795.6C121.34 796.067 121.58 796.647 121.58 797.34C121.58 798.02 121.34 798.6 120.86 799.08C120.38 799.547 119.793 799.78 119.1 799.78ZM127.342 799.78C126.662 799.78 126.082 799.547 125.602 799.08C125.136 798.6 124.902 798.02 124.902 797.34C124.902 796.647 125.136 796.067 125.602 795.6C126.082 795.12 126.662 794.88 127.342 794.88C128.036 794.88 128.622 795.12 129.102 795.6C129.582 796.067 129.822 796.647 129.822 797.34C129.822 798.02 129.582 798.6 129.102 799.08C128.622 799.547 128.036 799.78 127.342 799.78ZM135.584 799.78C134.904 799.78 134.324 799.547 133.844 799.08C133.378 798.6 133.144 798.02 133.144 797.34C133.144 796.647 133.378 796.067 133.844 795.6C134.324 795.12 134.904 794.88 135.584 794.88C136.278 794.88 136.864 795.12 137.344 795.6C137.824 796.067 138.064 796.647 138.064 797.34C138.064 798.02 137.824 798.6 137.344 799.08C136.864 799.547 136.278 799.78 135.584 799.78ZM143.827 799.78C143.147 799.78 142.567 799.547 142.087 799.08C141.62 798.6 141.387 798.02 141.387 797.34C141.387 796.647 141.62 796.067 142.087 795.6C142.567 795.12 143.147 794.88 143.827 794.88C144.52 794.88 145.107 795.12 145.587 795.6C146.067 796.067 146.307 796.647 146.307 797.34C146.307 798.02 146.067 798.6 145.587 799.08C145.107 799.547 144.52 799.78 143.827 799.78ZM152.069 799.78C151.389 799.78 150.809 799.547 150.329 799.08C149.862 798.6 149.629 798.02 149.629 797.34C149.629 796.647 149.862 796.067 150.329 795.6C150.809 795.12 151.389 794.88 152.069 794.88C152.762 794.88 153.349 795.12 153.829 795.6C154.309 796.067 154.549 796.647 154.549 797.34C154.549 798.02 154.309 798.6 153.829 799.08C153.349 799.547 152.762 799.78 152.069 799.78ZM160.311 799.78C159.631 799.78 159.051 799.547 158.571 799.08C158.104 798.6 157.871 798.02 157.871 797.34C157.871 796.647 158.104 796.067 158.571 795.6C159.051 795.12 159.631 794.88 160.311 794.88C161.004 794.88 161.591 795.12 162.071 795.6C162.551 796.067 162.791 796.647 162.791 797.34C162.791 798.02 162.551 798.6 162.071 799.08C161.591 799.547 161.004 799.78 160.311 799.78ZM168.553 799.78C167.873 799.78 167.293 799.547 166.813 799.08C166.346 798.6 166.113 798.02 166.113 797.34C166.113 796.647 166.346 796.067 166.813 795.6C167.293 795.12 167.873 794.88 168.553 794.88C169.246 794.88 169.833 795.12 170.313 795.6C170.793 796.067 171.033 796.647 171.033 797.34C171.033 798.02 170.793 798.6 170.313 799.08C169.833 799.547 169.246 799.78 168.553 799.78Z" fill="#0B304B"/>
<rect x="99.5" y="774.5" width="496" height="45" rx="5.5" stroke="#FF6187" shape-rendering="crispEdges"/>
</g>
<g filter="url(#filter5_d_93_1531)">
<rect x="236" y="864" width="223" height="85" rx="24" fill="#FF6187"/>
<path d="M308.829 916.189C306.543 916.189 304.653 915.658 303.159 914.596C301.683 913.516 300.882 911.941 300.756 909.871H307.128C307.218 910.969 307.704 911.518 308.586 911.518C308.91 911.518 309.18 911.446 309.396 911.302C309.63 911.14 309.747 910.897 309.747 910.573C309.747 910.123 309.504 909.763 309.018 909.493C308.532 909.205 307.776 908.881 306.75 908.521C305.526 908.089 304.509 907.666 303.699 907.252C302.907 906.838 302.223 906.235 301.647 905.443C301.071 904.651 300.792 903.634 300.81 902.392C300.81 901.15 301.125 900.097 301.755 899.233C302.403 898.351 303.276 897.685 304.374 897.235C305.49 896.785 306.741 896.56 308.127 896.56C310.467 896.56 312.321 897.1 313.689 898.18C315.075 899.26 315.804 900.781 315.876 902.743H309.423C309.405 902.203 309.27 901.816 309.018 901.582C308.766 901.348 308.46 901.231 308.1 901.231C307.848 901.231 307.641 901.321 307.479 901.501C307.317 901.663 307.236 901.897 307.236 902.203C307.236 902.635 307.47 902.995 307.938 903.283C308.424 903.553 309.189 903.886 310.233 904.282C311.439 904.732 312.429 905.164 313.203 905.578C313.995 905.992 314.679 906.568 315.255 907.306C315.831 908.044 316.119 908.971 316.119 910.087C316.119 911.257 315.831 912.31 315.255 913.246C314.679 914.164 313.842 914.884 312.744 915.406C311.646 915.928 310.341 916.189 308.829 916.189ZM321.249 899.557C320.205 899.557 319.368 899.278 318.738 898.72C318.108 898.162 317.793 897.46 317.793 896.614C317.793 895.75 318.108 895.039 318.738 894.481C319.368 893.905 320.205 893.617 321.249 893.617C322.275 893.617 323.103 893.905 323.733 894.481C324.363 895.039 324.678 895.75 324.678 896.614C324.678 897.46 324.363 898.162 323.733 898.72C323.103 899.278 322.275 899.557 321.249 899.557ZM324.219 900.772V916H318.225V900.772H324.219ZM332.407 900.583C333.397 900.583 334.252 900.79 334.972 901.204C335.692 901.6 336.241 902.149 336.619 902.851V900.772H342.586V915.73C342.586 917.152 342.325 918.448 341.803 919.618C341.281 920.788 340.435 921.724 339.265 922.426C338.113 923.128 336.628 923.479 334.81 923.479C332.362 923.479 330.418 922.903 328.978 921.751C327.556 920.617 326.746 919.069 326.548 917.107H332.434C332.596 917.899 333.244 918.295 334.378 918.295C335.08 918.295 335.629 918.115 336.025 917.755C336.421 917.395 336.619 916.72 336.619 915.73V913.921C336.241 914.623 335.692 915.181 334.972 915.595C334.252 915.991 333.397 916.189 332.407 916.189C331.219 916.189 330.148 915.883 329.194 915.271C328.24 914.641 327.484 913.741 326.926 912.571C326.386 911.383 326.116 909.988 326.116 908.386C326.116 906.784 326.386 905.398 326.926 904.228C327.484 903.04 328.24 902.14 329.194 901.528C330.148 900.898 331.219 900.583 332.407 900.583ZM336.619 908.386C336.619 907.576 336.412 906.946 335.998 906.496C335.584 906.046 335.053 905.821 334.405 905.821C333.757 905.821 333.226 906.046 332.812 906.496C332.398 906.946 332.191 907.576 332.191 908.386C332.191 909.196 332.398 909.826 332.812 910.276C333.226 910.726 333.757 910.951 334.405 910.951C335.053 910.951 335.584 910.726 335.998 910.276C336.412 909.826 336.619 909.196 336.619 908.386ZM355.943 900.664C357.689 900.664 359.048 901.249 360.02 902.419C361.01 903.589 361.505 905.173 361.505 907.171V916H355.538V907.927C355.538 907.207 355.34 906.64 354.944 906.226C354.566 905.794 354.053 905.578 353.405 905.578C352.739 905.578 352.217 905.794 351.839 906.226C351.461 906.64 351.272 907.207 351.272 907.927V916H345.278V900.772H351.272V903.094C351.74 902.374 352.361 901.789 353.135 901.339C353.927 900.889 354.863 900.664 355.943 900.664ZM371.716 899.557C370.672 899.557 369.835 899.278 369.205 898.72C368.575 898.162 368.26 897.46 368.26 896.614C368.26 895.75 368.575 895.039 369.205 894.481C369.835 893.905 370.672 893.617 371.716 893.617C372.742 893.617 373.57 893.905 374.2 894.481C374.83 895.039 375.145 895.75 375.145 896.614C375.145 897.46 374.83 898.162 374.2 898.72C373.57 899.278 372.742 899.557 371.716 899.557ZM374.686 900.772V916H368.692V900.772H374.686ZM388.058 900.664C389.804 900.664 391.163 901.249 392.135 902.419C393.125 903.589 393.62 905.173 393.62 907.171V916H387.653V907.927C387.653 907.207 387.455 906.64 387.059 906.226C386.681 905.794 386.168 905.578 385.52 905.578C384.854 905.578 384.332 905.794 383.954 906.226C383.576 906.64 383.387 907.207 383.387 907.927V916H377.393V900.772H383.387V903.094C383.855 902.374 384.476 901.789 385.25 901.339C386.042 900.889 386.978 900.664 388.058 900.664Z" fill="#0B304B"/>
</g>
<path d="M278.232 614.592H290.216V624H265.8V584.352H278.232V614.592ZM309.136 624.392C305.963 624.392 303.107 623.739 300.568 622.432C298.029 621.125 296.032 619.259 294.576 616.832C293.157 614.368 292.448 611.493 292.448 608.208C292.448 604.923 293.157 602.067 294.576 599.64C296.032 597.176 298.029 595.291 300.568 593.984C303.107 592.677 305.963 592.024 309.136 592.024C312.309 592.024 315.165 592.677 317.704 593.984C320.243 595.291 322.221 597.176 323.64 599.64C325.096 602.067 325.824 604.923 325.824 608.208C325.824 611.493 325.096 614.368 323.64 616.832C322.221 619.259 320.243 621.125 317.704 622.432C315.165 623.739 312.309 624.392 309.136 624.392ZM309.136 613.64C310.293 613.64 311.264 613.192 312.048 612.296C312.832 611.363 313.224 610 313.224 608.208C313.224 606.416 312.832 605.072 312.048 604.176C311.264 603.243 310.293 602.776 309.136 602.776C307.979 602.776 307.008 603.243 306.224 604.176C305.44 605.072 305.048 606.416 305.048 608.208C305.048 610 305.421 611.363 306.168 612.296C306.952 613.192 307.941 613.64 309.136 613.64ZM341.098 592.024C343.151 592.024 344.924 592.453 346.418 593.312C347.911 594.133 349.05 595.272 349.834 596.728V592.416H362.21V623.44C362.21 626.389 361.668 629.077 360.586 631.504C359.503 633.931 357.748 635.872 355.322 637.328C352.932 638.784 349.852 639.512 346.082 639.512C341.004 639.512 336.972 638.317 333.986 635.928C331.036 633.576 329.356 630.365 328.946 626.296H341.154C341.49 627.939 342.834 628.76 345.186 628.76C346.642 628.76 347.78 628.387 348.602 627.64C349.423 626.893 349.834 625.493 349.834 623.44V619.688C349.05 621.144 347.911 622.301 346.418 623.16C344.924 623.981 343.151 624.392 341.098 624.392C338.634 624.392 336.412 623.757 334.434 622.488C332.455 621.181 330.887 619.315 329.73 616.888C328.61 614.424 328.05 611.531 328.05 608.208C328.05 604.885 328.61 602.011 329.73 599.584C330.887 597.12 332.455 595.253 334.434 593.984C336.412 592.677 338.634 592.024 341.098 592.024ZM349.834 608.208C349.834 606.528 349.404 605.221 348.546 604.288C347.687 603.355 346.586 602.888 345.242 602.888C343.898 602.888 342.796 603.355 341.938 604.288C341.079 605.221 340.65 606.528 340.65 608.208C340.65 609.888 341.079 611.195 341.938 612.128C342.796 613.061 343.898 613.528 345.242 613.528C346.586 613.528 347.687 613.061 348.546 612.128C349.404 611.195 349.834 609.888 349.834 608.208ZM383.58 589.896C381.414 589.896 379.678 589.317 378.372 588.16C377.065 587.003 376.412 585.547 376.412 583.792C376.412 582 377.065 580.525 378.372 579.368C379.678 578.173 381.414 577.576 383.58 577.576C385.708 577.576 387.425 578.173 388.732 579.368C390.038 580.525 390.692 582 390.692 583.792C390.692 585.547 390.038 587.003 388.732 588.16C387.425 589.317 385.708 589.896 383.58 589.896ZM389.74 592.416V624H377.308V592.416H389.74ZM417.475 592.192C421.096 592.192 423.915 593.405 425.931 595.832C427.984 598.259 429.011 601.544 429.011 605.688V624H416.635V607.256C416.635 605.763 416.224 604.587 415.403 603.728C414.619 602.832 413.555 602.384 412.211 602.384C410.829 602.384 409.747 602.832 408.963 603.728C408.179 604.587 407.787 605.763 407.787 607.256V624H395.355V592.416H407.787V597.232C408.757 595.739 410.045 594.525 411.651 593.592C413.293 592.659 415.235 592.192 417.475 592.192Z" fill="#0B304B"/>
<path d="M275.112 1024.26C273.363 1024.26 271.784 1023.88 270.376 1023.14C268.989 1022.39 267.891 1021.32 267.08 1019.94C266.291 1018.55 265.896 1016.93 265.896 1015.07C265.896 1013.24 266.301 1011.63 267.112 1010.24C267.923 1008.83 269.032 1007.75 270.44 1007.01C271.848 1006.26 273.427 1005.89 275.176 1005.89C276.925 1005.89 278.504 1006.26 279.912 1007.01C281.32 1007.75 282.429 1008.83 283.24 1010.24C284.051 1011.63 284.456 1013.24 284.456 1015.07C284.456 1016.91 284.04 1018.53 283.208 1019.94C282.397 1021.32 281.277 1022.39 279.848 1023.14C278.44 1023.88 276.861 1024.26 275.112 1024.26ZM275.112 1019.52C276.157 1019.52 277.043 1019.14 277.768 1018.37C278.515 1017.6 278.888 1016.5 278.888 1015.07C278.888 1013.64 278.525 1012.54 277.8 1011.78C277.096 1011.01 276.221 1010.62 275.176 1010.62C274.109 1010.62 273.224 1011.01 272.52 1011.78C271.816 1012.52 271.464 1013.62 271.464 1015.07C271.464 1016.5 271.805 1017.6 272.488 1018.37C273.192 1019.14 274.067 1019.52 275.112 1019.52ZM292.831 1009.12C293.471 1008.14 294.271 1007.37 295.231 1006.82C296.191 1006.24 297.258 1005.95 298.431 1005.95V1011.74H296.927C295.562 1011.74 294.538 1012.04 293.855 1012.64C293.172 1013.22 292.831 1014.24 292.831 1015.71V1024H287.359V1006.14H292.831V1009.12ZM315.092 1024.26C313.534 1024.26 312.148 1023.99 310.932 1023.46C309.716 1022.92 308.756 1022.2 308.052 1021.28C307.348 1020.34 306.953 1019.3 306.868 1018.14H312.276C312.34 1018.76 312.628 1019.26 313.14 1019.65C313.652 1020.03 314.281 1020.22 315.028 1020.22C315.71 1020.22 316.233 1020.1 316.596 1019.84C316.98 1019.56 317.172 1019.21 317.172 1018.78C317.172 1018.27 316.905 1017.9 316.372 1017.66C315.838 1017.41 314.974 1017.13 313.78 1016.83C312.5 1016.53 311.433 1016.22 310.58 1015.9C309.726 1015.56 308.99 1015.04 308.372 1014.34C307.753 1013.61 307.444 1012.64 307.444 1011.42C307.444 1010.4 307.721 1009.47 308.276 1008.64C308.852 1007.79 309.684 1007.11 310.772 1006.62C311.881 1006.13 313.193 1005.89 314.708 1005.89C316.948 1005.89 318.708 1006.44 319.988 1007.55C321.289 1008.66 322.036 1010.13 322.228 1011.97H317.172C317.086 1011.35 316.809 1010.86 316.34 1010.5C315.892 1010.13 315.294 1009.95 314.548 1009.95C313.908 1009.95 313.417 1010.08 313.076 1010.34C312.734 1010.57 312.564 1010.9 312.564 1011.33C312.564 1011.84 312.83 1012.22 313.364 1012.48C313.918 1012.74 314.772 1012.99 315.924 1013.25C317.246 1013.59 318.324 1013.93 319.156 1014.27C319.988 1014.59 320.713 1015.13 321.332 1015.87C321.972 1016.6 322.302 1017.58 322.324 1018.82C322.324 1019.86 322.025 1020.8 321.428 1021.63C320.852 1022.44 320.009 1023.08 318.9 1023.55C317.812 1024.02 316.542 1024.26 315.092 1024.26ZM328.424 1004.29C327.464 1004.29 326.674 1004.01 326.056 1003.46C325.458 1002.88 325.16 1002.18 325.16 1001.34C325.16 1000.49 325.458 999.787 326.056 999.232C326.674 998.656 327.464 998.368 328.424 998.368C329.362 998.368 330.13 998.656 330.728 999.232C331.346 999.787 331.656 1000.49 331.656 1001.34C331.656 1002.18 331.346 1002.88 330.728 1003.46C330.13 1004.01 329.362 1004.29 328.424 1004.29ZM331.144 1006.14V1024H325.672V1006.14H331.144ZM341.893 1005.89C343.152 1005.89 344.25 1006.14 345.189 1006.66C346.149 1007.17 346.885 1007.84 347.397 1008.67V1006.14H352.869V1023.97C352.869 1025.61 352.538 1027.09 351.877 1028.42C351.237 1029.76 350.245 1030.83 348.901 1031.62C347.578 1032.41 345.925 1032.8 343.941 1032.8C341.296 1032.8 339.152 1032.17 337.509 1030.91C335.866 1029.67 334.928 1027.99 334.693 1025.86H340.101C340.272 1026.54 340.677 1027.07 341.317 1027.46C341.957 1027.86 342.746 1028.06 343.685 1028.06C344.816 1028.06 345.712 1027.73 346.373 1027.07C347.056 1026.43 347.397 1025.4 347.397 1023.97V1021.44C346.864 1022.27 346.128 1022.95 345.189 1023.49C344.25 1024 343.152 1024.26 341.893 1024.26C340.421 1024.26 339.088 1023.88 337.893 1023.14C336.698 1022.37 335.749 1021.29 335.045 1019.9C334.362 1018.5 334.021 1016.87 334.021 1015.04C334.021 1013.21 334.362 1011.59 335.045 1010.21C335.749 1008.82 336.698 1007.75 337.893 1007.01C339.088 1006.26 340.421 1005.89 341.893 1005.89ZM347.397 1015.07C347.397 1013.71 347.013 1012.63 346.245 1011.84C345.498 1011.05 344.581 1010.66 343.493 1010.66C342.405 1010.66 341.477 1011.05 340.709 1011.84C339.962 1012.61 339.589 1013.67 339.589 1015.04C339.589 1016.41 339.962 1017.49 340.709 1018.3C341.477 1019.09 342.405 1019.49 343.493 1019.49C344.581 1019.49 345.498 1019.09 346.245 1018.3C347.013 1017.51 347.397 1016.44 347.397 1015.07ZM367.708 1005.95C369.798 1005.95 371.462 1006.63 372.7 1008C373.958 1009.34 374.588 1011.2 374.588 1013.57V1024H369.148V1014.3C369.148 1013.11 368.838 1012.18 368.22 1011.52C367.601 1010.86 366.769 1010.53 365.724 1010.53C364.678 1010.53 363.846 1010.86 363.228 1011.52C362.609 1012.18 362.3 1013.11 362.3 1014.3V1024H356.828V1006.14H362.3V1008.51C362.854 1007.72 363.601 1007.1 364.54 1006.66C365.478 1006.19 366.534 1005.95 367.708 1005.95ZM402.804 1006.14V1024H397.332V1021.57C396.777 1022.36 396.02 1023 395.06 1023.49C394.121 1023.96 393.076 1024.19 391.924 1024.19C390.558 1024.19 389.353 1023.89 388.308 1023.3C387.262 1022.68 386.452 1021.79 385.876 1020.64C385.3 1019.49 385.012 1018.13 385.012 1016.58V1006.14H390.452V1015.84C390.452 1017.03 390.761 1017.96 391.38 1018.62C391.998 1019.29 392.83 1019.62 393.876 1019.62C394.942 1019.62 395.785 1019.29 396.404 1018.62C397.022 1017.96 397.332 1017.03 397.332 1015.84V1006.14H402.804ZM412.206 1008.67C412.739 1007.84 413.475 1007.17 414.414 1006.66C415.353 1006.14 416.451 1005.89 417.71 1005.89C419.182 1005.89 420.515 1006.26 421.71 1007.01C422.905 1007.75 423.843 1008.82 424.526 1010.21C425.23 1011.59 425.582 1013.21 425.582 1015.04C425.582 1016.87 425.23 1018.5 424.526 1019.9C423.843 1021.29 422.905 1022.37 421.71 1023.14C420.515 1023.88 419.182 1024.26 417.71 1024.26C416.473 1024.26 415.374 1024 414.414 1023.49C413.475 1022.98 412.739 1022.31 412.206 1021.5V1032.51H406.734V1006.14H412.206V1008.67ZM420.014 1015.04C420.014 1013.67 419.63 1012.61 418.862 1011.84C418.115 1011.05 417.187 1010.66 416.078 1010.66C414.99 1010.66 414.062 1011.05 413.294 1011.84C412.547 1012.63 412.174 1013.71 412.174 1015.07C412.174 1016.44 412.547 1017.51 413.294 1018.3C414.062 1019.09 414.99 1019.49 416.078 1019.49C417.166 1019.49 418.094 1019.09 418.862 1018.3C419.63 1017.49 420.014 1016.41 420.014 1015.04Z" fill="#11466C"/>
<path d="M0 996C271.414 996 149.193 1252 695 1252V1503H0V996Z" fill="#FFA048"/>
<g clip-path="url(#clip1_93_1531)">
<path fill-rule="evenodd" clip-rule="evenodd" d="M551.497 792C550.789 791.999 550.083 792.07 549.394 792.214C548.789 792.34 548.184 792.006 548.042 791.468C547.901 790.93 548.276 790.392 548.881 790.266C549.74 790.088 550.619 789.998 551.501 790C551.502 790 551.502 790 551.503 790L551.5 791V790C551.5 790 551.501 790 551.501 790C555.888 790 559.258 792.227 561.461 794.316C562.574 795.371 563.423 796.421 563.994 797.207C564.28 797.602 564.498 797.932 564.647 798.166C564.721 798.283 564.778 798.377 564.817 798.442C564.836 798.475 564.852 798.501 564.862 798.52L564.875 798.542L564.879 798.549L564.88 798.551C564.881 798.552 564.881 798.553 563.875 799L562.883 798.529C562.788 798.686 562.69 798.843 562.59 798.998C562.467 798.809 562.305 798.569 562.104 798.293C561.585 797.579 560.817 796.629 559.82 795.684C557.805 793.774 554.988 792 551.5 792L551.497 792ZM562.59 798.998C562.008 799.898 561.337 800.751 560.584 801.546C560.184 801.969 560.245 802.6 560.721 802.955C561.196 803.311 561.906 803.256 562.306 802.834C563.289 801.795 564.147 800.668 564.867 799.471C565.039 799.185 565.044 798.843 564.881 798.553L563.875 799C562.869 799.447 562.869 799.447 562.869 799.448L562.868 799.446L562.861 799.434C562.855 799.423 562.843 799.404 562.828 799.378C562.798 799.326 562.75 799.248 562.686 799.147C562.657 799.101 562.625 799.052 562.59 798.998ZM544.135 792.265C544.583 791.961 545.214 791.999 545.613 792.353L549.906 796.169C549.909 796.171 549.911 796.174 549.914 796.176L554.677 800.41C554.68 800.412 554.682 800.415 554.685 800.417L558.978 804.233C559.208 804.437 559.327 804.719 559.305 805.007C559.283 805.295 559.123 805.56 558.864 805.735C556.75 807.168 554.176 807.961 551.518 808L551.5 808C547.113 808 543.743 805.774 541.539 803.684C540.426 802.629 539.577 801.579 539.006 800.793C538.72 800.398 538.502 800.068 538.353 799.834C538.279 799.717 538.222 799.623 538.183 799.558C538.164 799.525 538.148 799.499 538.138 799.48L538.125 799.458L538.121 799.451L538.12 799.449C538.119 799.448 538.119 799.447 539.125 799L538.119 799.447C537.955 799.157 537.961 798.813 538.134 798.527C539.609 796.083 541.655 793.948 544.135 792.265ZM540.41 799.003C540.533 799.192 540.695 799.431 540.896 799.707C541.415 800.421 542.183 801.371 543.18 802.316C545.193 804.225 548.007 805.997 551.491 806C553.229 805.973 554.924 805.552 556.418 804.786L553.806 802.464C553.627 802.563 553.441 802.652 553.247 802.729C552.695 802.947 552.099 803.065 551.495 803.074C550.891 803.084 550.291 802.985 549.73 802.784C549.17 802.583 548.661 802.283 548.234 801.903C547.807 801.523 547.47 801.071 547.243 800.573C547.017 800.075 546.906 799.541 546.917 799.004C546.927 798.467 547.059 797.938 547.305 797.447C547.392 797.275 547.491 797.109 547.603 796.95L544.735 794.401C543.007 795.701 541.543 797.258 540.41 799.003ZM549.281 798.442C549.209 798.635 549.17 798.836 549.166 799.04C549.161 799.308 549.216 799.575 549.33 799.824C549.443 800.073 549.611 800.299 549.825 800.489C550.038 800.679 550.293 800.829 550.573 800.929C550.853 801.03 551.153 801.079 551.456 801.075C551.685 801.071 551.911 801.036 552.128 800.972L549.281 798.442Z" fill="#FF6187"/>
<path fill-rule="evenodd" clip-rule="evenodd" d="M538.33 787.293C538.769 786.902 539.481 786.902 539.92 787.293L564.67 809.293C565.11 809.683 565.11 810.317 564.67 810.707C564.231 811.098 563.519 811.098 563.08 810.707L538.33 788.707C537.89 788.317 537.89 787.683 538.33 787.293Z" fill="#FF6187"/>
</g>
<path d="M0 0C271.414 0 149.193 562.449 695 562.449V1505H0V0Z" fill="#FED06E"/>
<g filter="url(#filter6_d_93_1531)">
<rect x="101" y="684" width="497" height="46" rx="6" fill="#FFE6B1" shape-rendering="crispEdges"/>
<path d="M120.36 700.54V705.2H125.44V706.7H120.36V711.5H126.04V713H118.54V699.04H126.04V700.54H120.36ZM134.134 701.84C135.467 701.84 136.547 702.247 137.374 703.06C138.201 703.86 138.614 705.02 138.614 706.54V713H136.814V706.8C136.814 705.707 136.541 704.873 135.994 704.3C135.447 703.713 134.701 703.42 133.754 703.42C132.794 703.42 132.027 703.72 131.454 704.32C130.894 704.92 130.614 705.793 130.614 706.94V713H128.794V702.04H130.614V703.6C130.974 703.04 131.461 702.607 132.074 702.3C132.701 701.993 133.387 701.84 134.134 701.84ZM143.807 703.54V710C143.807 710.533 143.92 710.913 144.147 711.14C144.374 711.353 144.767 711.46 145.327 711.46H146.667V713H145.027C144.014 713 143.254 712.767 142.747 712.3C142.24 711.833 141.987 711.067 141.987 710V703.54H140.567V702.04H141.987V699.28H143.807V702.04H146.667V703.54H143.807ZM158.872 707.1C158.872 707.447 158.852 707.813 158.812 708.2H150.052C150.119 709.28 150.485 710.127 151.152 710.74C151.832 711.34 152.652 711.64 153.612 711.64C154.399 711.64 155.052 711.46 155.572 711.1C156.105 710.727 156.479 710.233 156.692 709.62H158.652C158.359 710.673 157.772 711.533 156.892 712.2C156.012 712.853 154.919 713.18 153.612 713.18C152.572 713.18 151.639 712.947 150.812 712.48C149.999 712.013 149.359 711.353 148.892 710.5C148.425 709.633 148.192 708.633 148.192 707.5C148.192 706.367 148.419 705.373 148.872 704.52C149.325 703.667 149.959 703.013 150.772 702.56C151.599 702.093 152.545 701.86 153.612 701.86C154.652 701.86 155.572 702.087 156.372 702.54C157.172 702.993 157.785 703.62 158.212 704.42C158.652 705.207 158.872 706.1 158.872 707.1ZM156.992 706.72C156.992 706.027 156.839 705.433 156.532 704.94C156.225 704.433 155.805 704.053 155.272 703.8C154.752 703.533 154.172 703.4 153.532 703.4C152.612 703.4 151.825 703.693 151.172 704.28C150.532 704.867 150.165 705.68 150.072 706.72H156.992ZM163.094 703.82C163.414 703.193 163.868 702.707 164.454 702.36C165.054 702.013 165.781 701.84 166.634 701.84V703.72H166.154C164.114 703.72 163.094 704.827 163.094 707.04V713H161.274V702.04H163.094V703.82ZM183.507 702.04L176.907 718.16H175.027L177.187 712.88L172.767 702.04H174.787L178.227 710.92L181.627 702.04H183.507ZM190.117 713.18C189.09 713.18 188.157 712.947 187.317 712.48C186.49 712.013 185.837 711.353 185.357 710.5C184.89 709.633 184.657 708.633 184.657 707.5C184.657 706.38 184.897 705.393 185.377 704.54C185.87 703.673 186.537 703.013 187.377 702.56C188.217 702.093 189.157 701.86 190.197 701.86C191.237 701.86 192.177 702.093 193.017 702.56C193.857 703.013 194.517 703.667 194.997 704.52C195.49 705.373 195.737 706.367 195.737 707.5C195.737 708.633 195.484 709.633 194.977 710.5C194.484 711.353 193.81 712.013 192.957 712.48C192.104 712.947 191.157 713.18 190.117 713.18ZM190.117 711.58C190.77 711.58 191.384 711.427 191.957 711.12C192.53 710.813 192.99 710.353 193.337 709.74C193.697 709.127 193.877 708.38 193.877 707.5C193.877 706.62 193.704 705.873 193.357 705.26C193.01 704.647 192.557 704.193 191.997 703.9C191.437 703.593 190.83 703.44 190.177 703.44C189.51 703.44 188.897 703.593 188.337 703.9C187.79 704.193 187.35 704.647 187.017 705.26C186.684 705.873 186.517 706.62 186.517 707.5C186.517 708.393 186.677 709.147 186.997 709.76C187.33 710.373 187.77 710.833 188.317 711.14C188.864 711.433 189.464 711.58 190.117 711.58ZM207.85 702.04V713H206.03V711.38C205.683 711.94 205.197 712.38 204.57 712.7C203.957 713.007 203.277 713.16 202.53 713.16C201.677 713.16 200.91 712.987 200.23 712.64C199.55 712.28 199.01 711.747 198.61 711.04C198.223 710.333 198.03 709.473 198.03 708.46V702.04H199.83V708.22C199.83 709.3 200.103 710.133 200.65 710.72C201.197 711.293 201.943 711.58 202.89 711.58C203.863 711.58 204.63 711.28 205.19 710.68C205.75 710.08 206.03 709.207 206.03 708.06V702.04H207.85ZM212.743 703.82C213.063 703.193 213.516 702.707 214.103 702.36C214.703 702.013 215.429 701.84 216.283 701.84V703.72H215.803C213.763 703.72 212.743 704.827 212.743 707.04V713H210.923V702.04H212.743V703.82ZM225.536 698.2V713H223.716V698.2H225.536ZM233.418 713.18C232.391 713.18 231.458 712.947 230.618 712.48C229.791 712.013 229.138 711.353 228.658 710.5C228.191 709.633 227.958 708.633 227.958 707.5C227.958 706.38 228.198 705.393 228.678 704.54C229.171 703.673 229.838 703.013 230.678 702.56C231.518 702.093 232.458 701.86 233.498 701.86C234.538 701.86 235.478 702.093 236.318 702.56C237.158 703.013 237.818 703.667 238.298 704.52C238.791 705.373 239.038 706.367 239.038 707.5C239.038 708.633 238.784 709.633 238.278 710.5C237.784 711.353 237.111 712.013 236.258 712.48C235.404 712.947 234.458 713.18 233.418 713.18ZM233.418 711.58C234.071 711.58 234.684 711.427 235.258 711.12C235.831 710.813 236.291 710.353 236.638 709.74C236.998 709.127 237.178 708.38 237.178 707.5C237.178 706.62 237.004 705.873 236.658 705.26C236.311 704.647 235.858 704.193 235.298 703.9C234.738 703.593 234.131 703.44 233.478 703.44C232.811 703.44 232.198 703.593 231.638 703.9C231.091 704.193 230.651 704.647 230.318 705.26C229.984 705.873 229.818 706.62 229.818 707.5C229.818 708.393 229.978 709.147 230.298 709.76C230.631 710.373 231.071 710.833 231.618 711.14C232.164 711.433 232.764 711.58 233.418 711.58ZM245.951 701.86C246.897 701.86 247.724 702.067 248.431 702.48C249.151 702.893 249.684 703.413 250.031 704.04V702.04H251.871V713.24C251.871 714.24 251.657 715.127 251.231 715.9C250.804 716.687 250.191 717.3 249.391 717.74C248.604 718.18 247.684 718.4 246.631 718.4C245.191 718.4 243.991 718.06 243.031 717.38C242.071 716.7 241.504 715.773 241.331 714.6H243.131C243.331 715.267 243.744 715.8 244.371 716.2C244.997 716.613 245.751 716.82 246.631 716.82C247.631 716.82 248.444 716.507 249.071 715.88C249.711 715.253 250.031 714.373 250.031 713.24V710.94C249.671 711.58 249.137 712.113 248.431 712.54C247.724 712.967 246.897 713.18 245.951 713.18C244.977 713.18 244.091 712.94 243.291 712.46C242.504 711.98 241.884 711.307 241.431 710.44C240.977 709.573 240.751 708.587 240.751 707.48C240.751 706.36 240.977 705.38 241.431 704.54C241.884 703.687 242.504 703.027 243.291 702.56C244.091 702.093 244.977 701.86 245.951 701.86ZM250.031 707.5C250.031 706.673 249.864 705.953 249.531 705.34C249.197 704.727 248.744 704.26 248.171 703.94C247.611 703.607 246.991 703.44 246.311 703.44C245.631 703.44 245.011 703.6 244.451 703.92C243.891 704.24 243.444 704.707 243.111 705.32C242.777 705.933 242.611 706.653 242.611 707.48C242.611 708.32 242.777 709.053 243.111 709.68C243.444 710.293 243.891 710.767 244.451 711.1C245.011 711.42 245.631 711.58 246.311 711.58C246.991 711.58 247.611 711.42 248.171 711.1C248.744 710.767 249.197 710.293 249.531 709.68C249.864 709.053 250.031 708.327 250.031 707.5ZM255.886 700.26C255.54 700.26 255.246 700.14 255.006 699.9C254.766 699.66 254.646 699.367 254.646 699.02C254.646 698.673 254.766 698.38 255.006 698.14C255.246 697.9 255.54 697.78 255.886 697.78C256.22 697.78 256.5 697.9 256.726 698.14C256.966 698.38 257.086 698.673 257.086 699.02C257.086 699.367 256.966 699.66 256.726 699.9C256.5 700.14 256.22 700.26 255.886 700.26ZM256.766 702.04V713H254.946V702.04H256.766ZM265.208 701.84C266.541 701.84 267.621 702.247 268.448 703.06C269.275 703.86 269.688 705.02 269.688 706.54V713H267.888V706.8C267.888 705.707 267.615 704.873 267.068 704.3C266.521 703.713 265.775 703.42 264.828 703.42C263.868 703.42 263.101 703.72 262.528 704.32C261.968 704.92 261.688 705.793 261.688 706.94V713H259.868V702.04H261.688V703.6C262.048 703.04 262.535 702.607 263.148 702.3C263.775 701.993 264.461 701.84 265.208 701.84Z" fill="#0B304B"/>
<rect x="101.5" y="684.5" width="496" height="45" rx="5.5" stroke="#FF6187" shape-rendering="crispEdges"/>
</g>
<g filter="url(#filter7_d_93_1531)">
<rect x="99" y="774" width="497" height="46" rx="6" fill="#FFE6B1" shape-rendering="crispEdges"/>
<path d="M119.1 799.78C118.42 799.78 117.84 799.547 117.36 799.08C116.893 798.6 116.66 798.02 116.66 797.34C116.66 796.647 116.893 796.067 117.36 795.6C117.84 795.12 118.42 794.88 119.1 794.88C119.793 794.88 120.38 795.12 120.86 795.6C121.34 796.067 121.58 796.647 121.58 797.34C121.58 798.02 121.34 798.6 120.86 799.08C120.38 799.547 119.793 799.78 119.1 799.78ZM127.342 799.78C126.662 799.78 126.082 799.547 125.602 799.08C125.136 798.6 124.902 798.02 124.902 797.34C124.902 796.647 125.136 796.067 125.602 795.6C126.082 795.12 126.662 794.88 127.342 794.88C128.036 794.88 128.622 795.12 129.102 795.6C129.582 796.067 129.822 796.647 129.822 797.34C129.822 798.02 129.582 798.6 129.102 799.08C128.622 799.547 128.036 799.78 127.342 799.78ZM135.584 799.78C134.904 799.78 134.324 799.547 133.844 799.08C133.378 798.6 133.144 798.02 133.144 797.34C133.144 796.647 133.378 796.067 133.844 795.6C134.324 795.12 134.904 794.88 135.584 794.88C136.278 794.88 136.864 795.12 137.344 795.6C137.824 796.067 138.064 796.647 138.064 797.34C138.064 798.02 137.824 798.6 137.344 799.08C136.864 799.547 136.278 799.78 135.584 799.78ZM143.827 799.78C143.147 799.78 142.567 799.547 142.087 799.08C141.62 798.6 141.387 798.02 141.387 797.34C141.387 796.647 141.62 796.067 142.087 795.6C142.567 795.12 143.147 794.88 143.827 794.88C144.52 794.88 145.107 795.12 145.587 795.6C146.067 796.067 146.307 796.647 146.307 797.34C146.307 798.02 146.067 798.6 145.587 799.08C145.107 799.547 144.52 799.78 143.827 799.78ZM152.069 799.78C151.389 799.78 150.809 799.547 150.329 799.08C149.862 798.6 149.629 798.02 149.629 797.34C149.629 796.647 149.862 796.067 150.329 795.6C150.809 795.12 151.389 794.88 152.069 794.88C152.762 794.88 153.349 795.12 153.829 795.6C154.309 796.067 154.549 796.647 154.549 797.34C154.549 798.02 154.309 798.6 153.829 799.08C153.349 799.547 152.762 799.78 152.069 799.78ZM160.311 799.78C159.631 799.78 159.051 799.547 158.571 799.08C158.104 798.6 157.871 798.02 157.871 797.34C157.871 796.647 158.104 796.067 158.571 795.6C159.051 795.12 159.631 794.88 160.311 794.88C161.004 794.88 161.591 795.12 162.071 795.6C162.551 796.067 162.791 796.647 162.791 797.34C162.791 798.02 162.551 798.6 162.071 799.08C161.591 799.547 161.004 799.78 160.311 799.78ZM168.553 799.78C167.873 799.78 167.293 799.547 166.813 799.08C166.346 798.6 166.113 798.02 166.113 797.34C166.113 796.647 166.346 796.067 166.813 795.6C167.293 795.12 167.873 794.88 168.553 794.88C169.246 794.88 169.833 795.12 170.313 795.6C170.793 796.067 171.033 796.647 171.033 797.34C171.033 798.02 170.793 798.6 170.313 799.08C169.833 799.547 169.246 799.78 168.553 799.78Z" fill="#0B304B"/>
<rect x="99.5" y="774.5" width="496" height="45" rx="5.5" stroke="#FF6187" shape-rendering="crispEdges"/>
</g>
<g filter="url(#filter8_d_93_1531)">
<rect x="236" y="864" width="223" height="85" rx="24" fill="#FF6187"/>
<path d="M308.829 916.189C306.543 916.189 304.653 915.658 303.159 914.596C301.683 913.516 300.882 911.941 300.756 909.871H307.128C307.218 910.969 307.704 911.518 308.586 911.518C308.91 911.518 309.18 911.446 309.396 911.302C309.63 911.14 309.747 910.897 309.747 910.573C309.747 910.123 309.504 909.763 309.018 909.493C308.532 909.205 307.776 908.881 306.75 908.521C305.526 908.089 304.509 907.666 303.699 907.252C302.907 906.838 302.223 906.235 301.647 905.443C301.071 904.651 300.792 903.634 300.81 902.392C300.81 901.15 301.125 900.097 301.755 899.233C302.403 898.351 303.276 897.685 304.374 897.235C305.49 896.785 306.741 896.56 308.127 896.56C310.467 896.56 312.321 897.1 313.689 898.18C315.075 899.26 315.804 900.781 315.876 902.743H309.423C309.405 902.203 309.27 901.816 309.018 901.582C308.766 901.348 308.46 901.231 308.1 901.231C307.848 901.231 307.641 901.321 307.479 901.501C307.317 901.663 307.236 901.897 307.236 902.203C307.236 902.635 307.47 902.995 307.938 903.283C308.424 903.553 309.189 903.886 310.233 904.282C311.439 904.732 312.429 905.164 313.203 905.578C313.995 905.992 314.679 906.568 315.255 907.306C315.831 908.044 316.119 908.971 316.119 910.087C316.119 911.257 315.831 912.31 315.255 913.246C314.679 914.164 313.842 914.884 312.744 915.406C311.646 915.928 310.341 916.189 308.829 916.189ZM321.249 899.557C320.205 899.557 319.368 899.278 318.738 898.72C318.108 898.162 317.793 897.46 317.793 896.614C317.793 895.75 318.108 895.039 318.738 894.481C319.368 893.905 320.205 893.617 321.249 893.617C322.275 893.617 323.103 893.905 323.733 894.481C324.363 895.039 324.678 895.75 324.678 896.614C324.678 897.46 324.363 898.162 323.733 898.72C323.103 899.278 322.275 899.557 321.249 899.557ZM324.219 900.772V916H318.225V900.772H324.219ZM332.407 900.583C333.397 900.583 334.252 900.79 334.972 901.204C335.692 901.6 336.241 902.149 336.619 902.851V900.772H342.586V915.73C342.586 917.152 342.325 918.448 341.803 919.618C341.281 920.788 340.435 921.724 339.265 922.426C338.113 923.128 336.628 923.479 334.81 923.479C332.362 923.479 330.418 922.903 328.978 921.751C327.556 920.617 326.746 919.069 326.548 917.107H332.434C332.596 917.899 333.244 918.295 334.378 918.295C335.08 918.295 335.629 918.115 336.025 917.755C336.421 917.395 336.619 916.72 336.619 915.73V913.921C336.241 914.623 335.692 915.181 334.972 915.595C334.252 915.991 333.397 916.189 332.407 916.189C331.219 916.189 330.148 915.883 329.194 915.271C328.24 914.641 327.484 913.741 326.926 912.571C326.386 911.383 326.116 909.988 326.116 908.386C326.116 906.784 326.386 905.398 326.926 904.228C327.484 903.04 328.24 902.14 329.194 901.528C330.148 900.898 331.219 900.583 332.407 900.583ZM336.619 908.386C336.619 907.576 336.412 906.946 335.998 906.496C335.584 906.046 335.053 905.821 334.405 905.821C333.757 905.821 333.226 906.046 332.812 906.496C332.398 906.946 332.191 907.576 332.191 908.386C332.191 909.196 332.398 909.826 332.812 910.276C333.226 910.726 333.757 910.951 334.405 910.951C335.053 910.951 335.584 910.726 335.998 910.276C336.412 909.826 336.619 909.196 336.619 908.386ZM355.943 900.664C357.689 900.664 359.048 901.249 360.02 902.419C361.01 903.589 361.505 905.173 361.505 907.171V916H355.538V907.927C355.538 907.207 355.34 906.64 354.944 906.226C354.566 905.794 354.053 905.578 353.405 905.578C352.739 905.578 352.217 905.794 351.839 906.226C351.461 906.64 351.272 907.207 351.272 907.927V916H345.278V900.772H351.272V903.094C351.74 902.374 352.361 901.789 353.135 901.339C353.927 900.889 354.863 900.664 355.943 900.664ZM371.716 899.557C370.672 899.557 369.835 899.278 369.205 898.72C368.575 898.162 368.26 897.46 368.26 896.614C368.26 895.75 368.575 895.039 369.205 894.481C369.835 893.905 370.672 893.617 371.716 893.617C372.742 893.617 373.57 893.905 374.2 894.481C374.83 895.039 375.145 895.75 375.145 896.614C375.145 897.46 374.83 898.162 374.2 898.72C373.57 899.278 372.742 899.557 371.716 899.557ZM374.686 900.772V916H368.692V900.772H374.686ZM388.058 900.664C389.804 900.664 391.163 901.249 392.135 902.419C393.125 903.589 393.62 905.173 393.62 907.171V916H387.653V907.927C387.653 907.207 387.455 906.64 387.059 906.226C386.681 905.794 386.168 905.578 385.52 905.578C384.854 905.578 384.332 905.794 383.954 906.226C383.576 906.64 383.387 907.207 383.387 907.927V916H377.393V900.772H383.387V903.094C383.855 902.374 384.476 901.789 385.25 901.339C386.042 900.889 386.978 900.664 388.058 900.664Z" fill="#0B304B"/>
</g>
<path d="M278.232 614.592H290.216V624H265.8V584.352H278.232V614.592ZM309.136 624.392C305.963 624.392 303.107 623.739 300.568 622.432C298.029 621.125 296.032 619.259 294.576 616.832C293.157 614.368 292.448 611.493 292.448 608.208C292.448 604.923 293.157 602.067 294.576 599.64C296.032 597.176 298.029 595.291 300.568 593.984C303.107 592.677 305.963 592.024 309.136 592.024C312.309 592.024 315.165 592.677 317.704 593.984C320.243 595.291 322.221 597.176 323.64 599.64C325.096 602.067 325.824 604.923 325.824 608.208C325.824 611.493 325.096 614.368 323.64 616.832C322.221 619.259 320.243 621.125 317.704 622.432C315.165 623.739 312.309 624.392 309.136 624.392ZM309.136 613.64C310.293 613.64 311.264 613.192 312.048 612.296C312.832 611.363 313.224 610 313.224 608.208C313.224 606.416 312.832 605.072 312.048 604.176C311.264 603.243 310.293 602.776 309.136 602.776C307.979 602.776 307.008 603.243 306.224 604.176C305.44 605.072 305.048 606.416 305.048 608.208C305.048 610 305.421 611.363 306.168 612.296C306.952 613.192 307.941 613.64 309.136 613.64ZM341.098 592.024C343.151 592.024 344.924 592.453 346.418 593.312C347.911 594.133 349.05 595.272 349.834 596.728V592.416H362.21V623.44C362.21 626.389 361.668 629.077 360.586 631.504C359.503 633.931 357.748 635.872 355.322 637.328C352.932 638.784 349.852 639.512 346.082 639.512C341.004 639.512 336.972 638.317 333.986 635.928C331.036 633.576 329.356 630.365 328.946 626.296H341.154C341.49 627.939 342.834 628.76 345.186 628.76C346.642 628.76 347.78 628.387 348.602 627.64C349.423 626.893 349.834 625.493 349.834 623.44V619.688C349.05 621.144 347.911 622.301 346.418 623.16C344.924 623.981 343.151 624.392 341.098 624.392C338.634 624.392 336.412 623.757 334.434 622.488C332.455 621.181 330.887 619.315 329.73 616.888C328.61 614.424 328.05 611.531 328.05 608.208C328.05 604.885 328.61 602.011 329.73 599.584C330.887 597.12 332.455 595.253 334.434 593.984C336.412 592.677 338.634 592.024 341.098 592.024ZM349.834 608.208C349.834 606.528 349.404 605.221 348.546 604.288C347.687 603.355 346.586 602.888 345.242 602.888C343.898 602.888 342.796 603.355 341.938 604.288C341.079 605.221 340.65 606.528 340.65 608.208C340.65 609.888 341.079 611.195 341.938 612.128C342.796 613.061 343.898 613.528 345.242 613.528C346.586 613.528 347.687 613.061 348.546 612.128C349.404 611.195 349.834 609.888 349.834 608.208ZM383.58 589.896C381.414 589.896 379.678 589.317 378.372 588.16C377.065 587.003 376.412 585.547 376.412 583.792C376.412 582 377.065 580.525 378.372 579.368C379.678 578.173 381.414 577.576 383.58 577.576C385.708 577.576 387.425 578.173 388.732 579.368C390.038 580.525 390.692 582 390.692 583.792C390.692 585.547 390.038 587.003 388.732 588.16C387.425 589.317 385.708 589.896 383.58 589.896ZM389.74 592.416V624H377.308V592.416H389.74ZM417.475 592.192C421.096 592.192 423.915 593.405 425.931 595.832C427.984 598.259 429.011 601.544 429.011 605.688V624H416.635V607.256C416.635 605.763 416.224 604.587 415.403 603.728C414.619 602.832 413.555 602.384 412.211 602.384C410.829 602.384 409.747 602.832 408.963 603.728C408.179 604.587 407.787 605.763 407.787 607.256V624H395.355V592.416H407.787V597.232C408.757 595.739 410.045 594.525 411.651 593.592C413.293 592.659 415.235 592.192 417.475 592.192Z" fill="#0B304B"/>
<path d="M275.112 1024.26C273.363 1024.26 271.784 1023.88 270.376 1023.14C268.989 1022.39 267.891 1021.32 267.08 1019.94C266.291 1018.55 265.896 1016.93 265.896 1015.07C265.896 1013.24 266.301 1011.63 267.112 1010.24C267.923 1008.83 269.032 1007.75 270.44 1007.01C271.848 1006.26 273.427 1005.89 275.176 1005.89C276.925 1005.89 278.504 1006.26 279.912 1007.01C281.32 1007.75 282.429 1008.83 283.24 1010.24C284.051 1011.63 284.456 1013.24 284.456 1015.07C284.456 1016.91 284.04 1018.53 283.208 1019.94C282.397 1021.32 281.277 1022.39 279.848 1023.14C278.44 1023.88 276.861 1024.26 275.112 1024.26ZM275.112 1019.52C276.157 1019.52 277.043 1019.14 277.768 1018.37C278.515 1017.6 278.888 1016.5 278.888 1015.07C278.888 1013.64 278.525 1012.54 277.8 1011.78C277.096 1011.01 276.221 1010.62 275.176 1010.62C274.109 1010.62 273.224 1011.01 272.52 1011.78C271.816 1012.52 271.464 1013.62 271.464 1015.07C271.464 1016.5 271.805 1017.6 272.488 1018.37C273.192 1019.14 274.067 1019.52 275.112 1019.52ZM292.831 1009.12C293.471 1008.14 294.271 1007.37 295.231 1006.82C296.191 1006.24 297.258 1005.95 298.431 1005.95V1011.74H296.927C295.562 1011.74 294.538 1012.04 293.855 1012.64C293.172 1013.22 292.831 1014.24 292.831 1015.71V1024H287.359V1006.14H292.831V1009.12ZM315.092 1024.26C313.534 1024.26 312.148 1023.99 310.932 1023.46C309.716 1022.92 308.756 1022.2 308.052 1021.28C307.348 1020.34 306.953 1019.3 306.868 1018.14H312.276C312.34 1018.76 312.628 1019.26 313.14 1019.65C313.652 1020.03 314.281 1020.22 315.028 1020.22C315.71 1020.22 316.233 1020.1 316.596 1019.84C316.98 1019.56 317.172 1019.21 317.172 1018.78C317.172 1018.27 316.905 1017.9 316.372 1017.66C315.838 1017.41 314.974 1017.13 313.78 1016.83C312.5 1016.53 311.433 1016.22 310.58 1015.9C309.726 1015.56 308.99 1015.04 308.372 1014.34C307.753 1013.61 307.444 1012.64 307.444 1011.42C307.444 1010.4 307.721 1009.47 308.276 1008.64C308.852 1007.79 309.684 1007.11 310.772 1006.62C311.881 1006.13 313.193 1005.89 314.708 1005.89C316.948 1005.89 318.708 1006.44 319.988 1007.55C321.289 1008.66 322.036 1010.13 322.228 1011.97H317.172C317.086 1011.35 316.809 1010.86 316.34 1010.5C315.892 1010.13 315.294 1009.95 314.548 1009.95C313.908 1009.95 313.417 1010.08 313.076 1010.34C312.734 1010.57 312.564 1010.9 312.564 1011.33C312.564 1011.84 312.83 1012.22 313.364 1012.48C313.918 1012.74 314.772 1012.99 315.924 1013.25C317.246 1013.59 318.324 1013.93 319.156 1014.27C319.988 1014.59 320.713 1015.13 321.332 1015.87C321.972 1016.6 322.302 1017.58 322.324 1018.82C322.324 1019.86 322.025 1020.8 321.428 1021.63C320.852 1022.44 320.009 1023.08 318.9 1023.55C317.812 1024.02 316.542 1024.26 315.092 1024.26ZM328.424 1004.29C327.464 1004.29 326.674 1004.01 326.056 1003.46C325.458 1002.88 325.16 1002.18 325.16 1001.34C325.16 1000.49 325.458 999.787 326.056 999.232C326.674 998.656 327.464 998.368 328.424 998.368C329.362 998.368 330.13 998.656 330.728 999.232C331.346 999.787 331.656 1000.49 331.656 1001.34C331.656 1002.18 331.346 1002.88 330.728 1003.46C330.13 1004.01 329.362 1004.29 328.424 1004.29ZM331.144 1006.14V1024H325.672V1006.14H331.144ZM341.893 1005.89C343.152 1005.89 344.25 1006.14 345.189 1006.66C346.149 1007.17 346.885 1007.84 347.397 1008.67V1006.14H352.869V1023.97C352.869 1025.61 352.538 1027.09 351.877 1028.42C351.237 1029.76 350.245 1030.83 348.901 1031.62C347.578 1032.41 345.925 1032.8 343.941 1032.8C341.296 1032.8 339.152 1032.17 337.509 1030.91C335.866 1029.67 334.928 1027.99 334.693 1025.86H340.101C340.272 1026.54 340.677 1027.07 341.317 1027.46C341.957 1027.86 342.746 1028.06 343.685 1028.06C344.816 1028.06 345.712 1027.73 346.373 1027.07C347.056 1026.43 347.397 1025.4 347.397 1023.97V1021.44C346.864 1022.27 346.128 1022.95 345.189 1023.49C344.25 1024 343.152 1024.26 341.893 1024.26C340.421 1024.26 339.088 1023.88 337.893 1023.14C336.698 1022.37 335.749 1021.29 335.045 1019.9C334.362 1018.5 334.021 1016.87 334.021 1015.04C334.021 1013.21 334.362 1011.59 335.045 1010.21C335.749 1008.82 336.698 1007.75 337.893 1007.01C339.088 1006.26 340.421 1005.89 341.893 1005.89ZM347.397 1015.07C347.397 1013.71 347.013 1012.63 346.245 1011.84C345.498 1011.05 344.581 1010.66 343.493 1010.66C342.405 1010.66 341.477 1011.05 340.709 1011.84C339.962 1012.61 339.589 1013.67 339.589 1015.04C339.589 1016.41 339.962 1017.49 340.709 1018.3C341.477 1019.09 342.405 1019.49 343.493 1019.49C344.581 1019.49 345.498 1019.09 346.245 1018.3C347.013 1017.51 347.397 1016.44 347.397 1015.07ZM367.708 1005.95C369.798 1005.95 371.462 1006.63 372.7 1008C373.958 1009.34 374.588 1011.2 374.588 1013.57V1024H369.148V1014.3C369.148 1013.11 368.838 1012.18 368.22 1011.52C367.601 1010.86 366.769 1010.53 365.724 1010.53C364.678 1010.53 363.846 1010.86 363.228 1011.52C362.609 1012.18 362.3 1013.11 362.3 1014.3V1024H356.828V1006.14H362.3V1008.51C362.854 1007.72 363.601 1007.1 364.54 1006.66C365.478 1006.19 366.534 1005.95 367.708 1005.95ZM402.804 1006.14V1024H397.332V1021.57C396.777 1022.36 396.02 1023 395.06 1023.49C394.121 1023.96 393.076 1024.19 391.924 1024.19C390.558 1024.19 389.353 1023.89 388.308 1023.3C387.262 1022.68 386.452 1021.79 385.876 1020.64C385.3 1019.49 385.012 1018.13 385.012 1016.58V1006.14H390.452V1015.84C390.452 1017.03 390.761 1017.96 391.38 1018.62C391.998 1019.29 392.83 1019.62 393.876 1019.62C394.942 1019.62 395.785 1019.29 396.404 1018.62C397.022 1017.96 397.332 1017.03 397.332 1015.84V1006.14H402.804ZM412.206 1008.67C412.739 1007.84 413.475 1007.17 414.414 1006.66C415.353 1006.14 416.451 1005.89 417.71 1005.89C419.182 1005.89 420.515 1006.26 421.71 1007.01C422.905 1007.75 423.843 1008.82 424.526 1010.21C425.23 1011.59 425.582 1013.21 425.582 1015.04C425.582 1016.87 425.23 1018.5 424.526 1019.9C423.843 1021.29 422.905 1022.37 421.71 1023.14C420.515 1023.88 419.182 1024.26 417.71 1024.26C416.473 1024.26 415.374 1024 414.414 1023.49C413.475 1022.98 412.739 1022.31 412.206 1021.5V1032.51H406.734V1006.14H412.206V1008.67ZM420.014 1015.04C420.014 1013.67 419.63 1012.61 418.862 1011.84C418.115 1011.05 417.187 1010.66 416.078 1010.66C414.99 1010.66 414.062 1011.05 413.294 1011.84C412.547 1012.63 412.174 1013.71 412.174 1015.07C412.174 1016.44 412.547 1017.51 413.294 1018.3C414.062 1019.09 414.99 1019.49 416.078 1019.49C417.166 1019.49 418.094 1019.09 418.862 1018.3C419.63 1017.49 420.014 1016.41 420.014 1015.04Z" fill="#11466C"/>
<path d="M0 996C271.414 996 149.193 1252 695 1252V1503H0V996Z" fill="#FFA048"/>
<path d="M0 0C263.994 0 142.495 562.449 676 562.449V1505H0V0Z" fill="#FED06E"/>
<path d="M0 996C263.994 996 145.115 1252 676 1252V1503H0V996Z" fill="#FFA048"/>
<path d="M293.094 729.24C302.342 728.98 311.439 731.63 319.101 736.815C322.468 730.7 327.767 725.873 334.169 723.09C340.571 720.307 347.715 719.725 354.483 721.435C361.251 723.145 367.261 727.051 371.573 732.541C375.885 738.031 378.255 744.795 378.313 751.776C378.313 755.816 386.898 761.687 400.406 761.687C413.915 761.687 422.5 755.816 422.5 751.776C422.506 733.334 415.785 715.524 403.596 701.685C391.408 687.845 374.589 678.927 356.294 676.604C338 674.28 319.486 678.71 304.225 689.063C288.963 699.416 278.003 714.981 273.399 732.838C279.646 730.294 286.351 729.069 293.094 729.24V729.24Z" fill="#FF6187"/>
<path d="M400.406 774.312C391.158 774.572 382.061 771.922 374.399 766.737C371.032 772.852 365.733 777.679 359.331 780.462C352.929 783.244 345.785 783.826 339.017 782.116C332.249 780.406 326.239 776.501 321.927 771.011C317.615 765.521 315.245 758.756 315.188 751.776C315.188 747.736 306.603 741.865 293.094 741.865C279.585 741.865 271 747.736 271 751.776C270.994 770.217 277.715 788.028 289.904 801.867C302.092 815.707 318.911 824.624 337.206 826.948C355.5 829.272 374.014 824.841 389.275 814.489C404.537 804.136 415.497 788.571 420.101 770.713C413.854 773.258 407.149 774.483 400.406 774.312Z" fill="#FFA048"/>
<path d="M334.125 701.276H327.812C326.138 701.276 324.533 700.611 323.349 699.427C322.165 698.243 321.5 696.638 321.5 694.963C321.5 693.289 322.165 691.684 323.349 690.5C324.533 689.316 326.138 688.651 327.812 688.651H334.125C335.799 688.651 337.405 689.316 338.589 690.5C339.772 691.684 340.438 693.289 340.438 694.963C340.438 696.638 339.772 698.243 338.589 699.427C337.405 700.611 335.799 701.276 334.125 701.276Z" fill="#F5F5F5"/>
<path d="M359.375 707.588C357.701 707.588 356.095 706.923 354.911 705.74C353.728 704.556 353.062 702.95 353.062 701.276V694.963C353.062 693.289 353.728 691.684 354.911 690.5C356.095 689.316 357.701 688.651 359.375 688.651C361.049 688.651 362.655 689.316 363.839 690.5C365.022 691.684 365.688 693.289 365.688 694.963V701.276C365.688 702.95 365.022 704.556 363.839 705.74C362.655 706.923 361.049 707.588 359.375 707.588Z" fill="#FFA048"/>
<path d="M378.312 720.213C376.638 720.213 375.033 719.548 373.849 718.365C372.665 717.181 372 715.575 372 713.901V707.588C372 705.914 372.665 704.309 373.849 703.125C375.033 701.941 376.638 701.276 378.312 701.276C379.987 701.276 381.592 701.941 382.776 703.125C383.96 704.309 384.625 705.914 384.625 707.588V713.901C384.625 715.575 383.96 717.181 382.776 718.365C381.592 719.548 379.987 720.213 378.312 720.213Z" fill="#5ED9EA"/>
<path d="M397.25 739.151H390.938C389.263 739.151 387.658 738.486 386.474 737.302C385.29 736.118 384.625 734.513 384.625 732.838C384.625 731.164 385.29 729.559 386.474 728.375C387.658 727.191 389.263 726.526 390.938 726.526H397.25C398.924 726.526 400.53 727.191 401.714 728.375C402.897 729.559 403.562 731.164 403.562 732.838C403.562 734.513 402.897 736.118 401.714 737.302C400.53 738.486 398.924 739.151 397.25 739.151Z" fill="#F5F5F5"/>
<path d="M308.875 720.213C307.201 720.213 305.595 719.548 304.411 718.365C303.228 717.181 302.562 715.575 302.562 713.901V707.588C302.562 705.914 303.228 704.309 304.411 703.125C305.595 701.941 307.201 701.276 308.875 701.276C310.549 701.276 312.155 701.941 313.339 703.125C314.522 704.309 315.188 705.914 315.188 707.588V713.901C315.188 715.575 314.522 717.181 313.339 718.365C312.155 719.548 310.549 720.213 308.875 720.213Z" fill="#5ED9EA"/>
</g>
<defs>
<filter id="filter0_d_93_1531" x="97" y="684" width="505" height="54" filterUnits="userSpaceOnUse" color-interpolation-filters="sRGB">
<feFlood flood-opacity="0" result="BackgroundImageFix"/>
<feColorMatrix in="SourceAlpha" type="matrix" values="0 0 0 0 0 0 0 0 0 0 0 0 0 0 0 0 0 0 127 0" result="hardAlpha"/>
<feOffset dy="4"/>
<feGaussianBlur stdDeviation="2"/>
<feComposite in2="hardAlpha" operator="out"/>
<feColorMatrix type="matrix" values="0 0 0 0 0 0 0 0 0 0 0 0 0 0 0 0 0 0 0.25 0"/>
<feBlend mode="normal" in2="BackgroundImageFix" result="effect1_dropShadow_93_1531"/>
<feBlend mode="normal" in="SourceGraphic" in2="effect1_dropShadow_93_1531" result="shape"/>
</filter>
<filter id="filter1_d_93_1531" x="95" y="774" width="505" height="54" filterUnits="userSpaceOnUse" color-interpolation-filters="sRGB">
<feFlood flood-opacity="0" result="BackgroundImageFix"/>
<feColorMatrix in="SourceAlpha" type="matrix" values="0 0 0 0 0 0 0 0 0 0 0 0 0 0 0 0 0 0 127 0" result="hardAlpha"/>
<feOffset dy="4"/>
<feGaussianBlur stdDeviation="2"/>
<feComposite in2="hardAlpha" operator="out"/>
<feColorMatrix type="matrix" values="0 0 0 0 0 0 0 0 0 0 0 0 0 0 0 0 0 0 0.25 0"/>
<feBlend mode="normal" in2="BackgroundImageFix" result="effect1_dropShadow_93_1531"/>
<feBlend mode="normal" in="SourceGraphic" in2="effect1_dropShadow_93_1531" result="shape"/>
</filter>
<filter id="filter2_d_93_1531" x="226" y="859" width="243" height="105" filterUnits="userSpaceOnUse" color-interpolation-filters="sRGB">
<feFlood flood-opacity="0" result="BackgroundImageFix"/>
<feColorMatrix in="SourceAlpha" type="matrix" values="0 0 0 0 0 0 0 0 0 0 0 0 0 0 0 0 0 0 127 0" result="hardAlpha"/>
<feOffset dy="5"/>
<feGaussianBlur stdDeviation="5"/>
<feColorMatrix type="matrix" values="0 0 0 0 0.583333 0 0 0 0 0.583333 0 0 0 0 0.583333 0 0 0 0.2 0"/>
<feBlend mode="normal" in2="BackgroundImageFix" result="effect1_dropShadow_93_1531"/>
<feBlend mode="normal" in="SourceGraphic" in2="effect1_dropShadow_93_1531" result="shape"/>
</filter>
<filter id="filter3_d_93_1531" x="97" y="684" width="505" height="54" filterUnits="userSpaceOnUse" color-interpolation-filters="sRGB">
<feFlood flood-opacity="0" result="BackgroundImageFix"/>
<feColorMatrix in="SourceAlpha" type="matrix" values="0 0 0 0 0 0 0 0 0 0 0 0 0 0 0 0 0 0 127 0" result="hardAlpha"/>
<feOffset dy="4"/>
<feGaussianBlur stdDeviation="2"/>
<feComposite in2="hardAlpha" operator="out"/>
<feColorMatrix type="matrix" values="0 0 0 0 0 0 0 0 0 0 0 0 0 0 0 0 0 0 0.25 0"/>
<feBlend mode="normal" in2="BackgroundImageFix" result="effect1_dropShadow_93_1531"/>
<feBlend mode="normal" in="SourceGraphic" in2="effect1_dropShadow_93_1531" result="shape"/>
</filter>
<filter id="filter4_d_93_1531" x="95" y="774" width="505" height="54" filterUnits="userSpaceOnUse" color-interpolation-filters="sRGB">
<feFlood flood-opacity="0" result="BackgroundImageFix"/>
<feColorMatrix in="SourceAlpha" type="matrix" values="0 0 0 0 0 0 0 0 0 0 0 0 0 0 0 0 0 0 127 0" result="hardAlpha"/>
<feOffset dy="4"/>
<feGaussianBlur stdDeviation="2"/>
<feComposite in2="hardAlpha" operator="out"/>
<feColorMatrix type="matrix" values="0 0 0 0 0 0 0 0 0 0 0 0 0 0 0 0 0 0 0.25 0"/>
<feBlend mode="normal" in2="BackgroundImageFix" result="effect1_dropShadow_93_1531"/>
<feBlend mode="normal" in="SourceGraphic" in2="effect1_dropShadow_93_1531" result="shape"/>
</filter>
<filter id="filter5_d_93_1531" x="226" y="859" width="243" height="105" filterUnits="userSpaceOnUse" color-interpolation-filters="sRGB">
<feFlood flood-opacity="0" result="BackgroundImageFix"/>
<feColorMatrix in="SourceAlpha" type="matrix" values="0 0 0 0 0 0 0 0 0 0 0 0 0 0 0 0 0 0 127 0" result="hardAlpha"/>
<feOffset dy="5"/>
<feGaussianBlur stdDeviation="5"/>
<feColorMatrix type="matrix" values="0 0 0 0 0.583333 0 0 0 0 0.583333 0 0 0 0 0.583333 0 0 0 0.2 0"/>
<feBlend mode="normal" in2="BackgroundImageFix" result="effect1_dropShadow_93_1531"/>
<feBlend mode="normal" in="SourceGraphic" in2="effect1_dropShadow_93_1531" result="shape"/>
</filter>
<filter id="filter6_d_93_1531" x="97" y="684" width="505" height="54" filterUnits="userSpaceOnUse" color-interpolation-filters="sRGB">
<feFlood flood-opacity="0" result="BackgroundImageFix"/>
<feColorMatrix in="SourceAlpha" type="matrix" values="0 0 0 0 0 0 0 0 0 0 0 0 0 0 0 0 0 0 127 0" result="hardAlpha"/>
<feOffset dy="4"/>
<feGaussianBlur stdDeviation="2"/>
<feComposite in2="hardAlpha" operator="out"/>
<feColorMatrix type="matrix" values="0 0 0 0 0 0 0 0 0 0 0 0 0 0 0 0 0 0 0.25 0"/>
<feBlend mode="normal" in2="BackgroundImageFix" result="effect1_dropShadow_93_1531"/>
<feBlend mode="normal" in="SourceGraphic" in2="effect1_dropShadow_93_1531" result="shape"/>
</filter>
<filter id="filter7_d_93_1531" x="95" y="774" width="505" height="54" filterUnits="userSpaceOnUse" color-interpolation-filters="sRGB">
<feFlood flood-opacity="0" result="BackgroundImageFix"/>
<feColorMatrix in="SourceAlpha" type="matrix" values="0 0 0 0 0 0 0 0 0 0 0 0 0 0 0 0 0 0 127 0" result="hardAlpha"/>
<feOffset dy="4"/>
<feGaussianBlur stdDeviation="2"/>
<feComposite in2="hardAlpha" operator="out"/>
<feColorMatrix type="matrix" values="0 0 0 0 0 0 0 0 0 0 0 0 0 0 0 0 0 0 0.25 0"/>
<feBlend mode="normal" in2="BackgroundImageFix" result="effect1_dropShadow_93_1531"/>
<feBlend mode="normal" in="SourceGraphic" in2="effect1_dropShadow_93_1531" result="shape"/>
</filter>
<filter id="filter8_d_93_1531" x="226" y="859" width="243" height="105" filterUnits="userSpaceOnUse" color-interpolation-filters="sRGB">
<feFlood flood-opacity="0" result="BackgroundImageFix"/>
<feColorMatrix in="SourceAlpha" type="matrix" values="0 0 0 0 0 0 0 0 0 0 0 0 0 0 0 0 0 0 127 0" result="hardAlpha"/>
<feOffset dy="5"/>
<feGaussianBlur stdDeviation="5"/>
<feColorMatrix type="matrix" values="0 0 0 0 0.583333 0 0 0 0 0.583333 0 0 0 0 0.583333 0 0 0 0.2 0"/>
<feBlend mode="normal" in2="BackgroundImageFix" result="effect1_dropShadow_93_1531"/>
<feBlend mode="normal" in="SourceGraphic" in2="effect1_dropShadow_93_1531" result="shape"/>
</filter>
<clipPath id="clip0_93_1531">
<rect width="676" height="1503" fill="white"/>
</clipPath>
<clipPath id="clip1_93_1531">
<rect width="27" height="24" fill="white" transform="translate(538 787)"/>
</clipPath>
</defs>
</svg>
