<svg width="695" height="1503" viewBox="0 0 695 1503" fill="none" xmlns="http://www.w3.org/2000/svg">
<path d="M0 0C271.414 0 149.193 562.449 695 562.449V1505H0V0Z" fill="#FED06E"/>
<path d="M0 996C271.414 996 149.193 1252 695 1252V1503H0V996Z" fill="#FFA048"/>
<path d="M0 0C271.414 0 146.5 562.449 695 562.449V1505H0V0Z" fill="#FED06E"/>
<path d="M0 996C271.414 996 149.193 1252 695 1252V1503H0V996Z" fill="#FFA048"/>
<path d="M0 0C271.414 0 149.193 562.449 695 562.449V1505H0V0Z" fill="#FED06E"/>
<path d="M0 996C271.414 996 149.193 1252 695 1252V1503H0V996Z" fill="#FFA048"/>
<path d="M0 0C271.414 0 146.5 562.449 695 562.449V1505H0V0Z" fill="#FED06E"/>
<path d="M-2 993C269.414 993 147.193 1249 693 1249V1500H-2V993Z" fill="#FFA048"/>
<g clip-path="url(#clip0_38_2784)">
<path d="M59.0941 447.593V511.752H40V447.593H59.0941Z" fill="#FF6187"/>
<path d="M99.8559 466.014V511.752H80.7618V466.014H66.1506V447.593H114.434V466.014H99.8559Z" fill="#FF6187"/>
<path d="M120.179 511.752V465.5C120.179 459.758 121.922 455.078 125.392 451.443C128.879 447.809 133.378 445.983 138.941 445.983C145.516 445.983 150.58 449.004 154.133 455.061C156.291 451.808 158.616 449.468 161.09 448.074C163.564 446.68 166.619 445.983 170.255 445.983C176.016 445.983 180.45 447.809 183.521 451.443C186.593 455.078 188.137 460.305 188.137 467.143V511.752H169.043V470.014C169.043 467.939 168.877 466.578 168.545 465.898C168.213 465.218 167.549 464.886 166.552 464.886C164.676 464.886 163.73 466.479 163.73 469.682V511.752H144.636V470.014C144.636 467.972 144.47 466.612 144.121 465.931C143.772 465.234 143.108 464.902 142.095 464.902C140.219 464.902 139.273 466.612 139.273 470.03V511.768H120.179V511.752Z" fill="#FF6187"/>
<path d="M230.111 446C239.21 446 246.997 449.303 253.505 455.924C260.014 462.529 263.268 470.445 263.268 479.656C263.268 488.866 259.997 496.982 253.439 503.537C246.881 510.092 238.927 513.361 229.546 513.361C220.165 513.361 212.295 510.075 205.704 503.487C199.112 496.899 195.825 488.966 195.825 479.656C195.825 470.346 199.145 462.297 205.77 455.775C212.395 449.253 220.514 446 230.111 446V446ZM229.546 464.886C225.628 464.886 222.291 466.33 219.534 469.217C216.778 472.105 215.4 475.573 215.4 479.656C215.4 483.738 216.795 487.207 219.568 490.094C222.34 492.982 225.678 494.426 229.563 494.426C233.448 494.426 236.852 492.999 239.608 490.128C242.348 487.257 243.726 483.771 243.726 479.672C243.726 475.573 242.348 472.088 239.608 469.217C236.869 466.346 233.515 464.919 229.563 464.919L229.546 464.886Z" fill="#FF6187"/>
<path d="M283.956 490.692C287.028 490.692 289.668 491.804 291.876 494.028C294.084 496.251 295.197 498.907 295.197 501.977C295.197 505.047 294.101 507.652 291.909 509.81C289.718 511.951 287.061 513.029 283.956 513.029C280.851 513.029 278.079 511.984 275.987 509.909C273.894 507.818 272.865 505.163 272.865 501.944C272.865 498.724 273.944 496.152 276.103 493.978C278.261 491.804 280.885 490.708 283.956 490.708V490.692Z" fill="#FF6187"/>
<path d="M327.773 466.014V511.752H308.679V447.593H333.551C344.46 447.593 352.994 450.066 359.17 455.011C366.509 460.936 370.179 468.968 370.179 479.125C370.179 489.281 367.041 496.766 360.781 502.906C354.505 509.046 346.435 512.117 336.573 512.117C335.411 512.117 333.518 512.05 330.878 511.934V493.082H333.933C345.057 493.082 350.62 488.435 350.62 479.125C350.62 470.379 345.157 466.014 334.215 466.014H327.773Z" fill="#FF6187"/>
<path d="M409.595 446C418.694 446 426.481 449.303 432.99 455.924C439.498 462.529 442.753 470.445 442.753 479.656C442.753 488.866 439.482 496.982 432.923 503.537C426.365 510.092 418.412 513.361 409.031 513.361C399.65 513.361 391.78 510.075 385.188 503.487C378.597 496.899 375.309 488.966 375.309 479.656C375.309 470.346 378.63 462.297 385.255 455.775C391.879 449.253 399.999 446 409.595 446V446ZM409.031 464.886C405.112 464.886 401.775 466.33 399.019 469.217C396.263 472.105 394.885 475.573 394.885 479.656C394.885 483.738 396.263 487.207 399.052 490.094C401.825 492.982 405.162 494.426 409.048 494.426C412.933 494.426 416.337 492.999 419.093 490.128C421.832 487.257 423.21 483.771 423.21 479.672C423.21 475.573 421.832 472.088 419.093 469.217C416.353 466.346 412.999 464.919 409.048 464.919L409.031 464.886Z" fill="#FF6187"/>
<path d="M450.407 511.752V470.113C450.407 462.811 452.599 456.97 456.965 452.588C461.332 448.207 467.16 446.017 474.432 446.017C481.705 446.017 487.217 448.141 491.053 452.406C494.888 456.671 496.814 462.795 496.814 470.777V511.768H477.72V470.761C477.72 466.844 476.325 464.886 473.536 464.886C470.746 464.886 469.485 466.844 469.485 470.761V511.752H450.39H450.407Z" fill="#FF6187"/>
<path d="M553.532 447.593V489.198C553.532 496.533 551.34 502.392 546.973 506.773C542.607 511.154 536.779 513.345 529.506 513.345C522.234 513.345 516.722 511.22 512.886 506.955C509.051 502.69 507.125 496.567 507.125 488.584V447.593H526.219V488.534C526.219 492.451 527.614 494.409 530.403 494.409C533.192 494.409 534.454 492.451 534.454 488.534V447.593H553.548H553.532Z" fill="#FF6187"/>
<path d="M593.065 466.014V511.752H573.971V466.014H559.343V447.593H607.626V466.014H593.048H593.065Z" fill="#FF6187"/>
<path d="M644.835 447.311V465.599C643.457 465.135 642.394 464.902 641.63 464.902C640.186 464.902 638.957 465.433 637.911 466.496C636.882 467.558 636.367 468.852 636.367 470.346C636.367 471.624 636.932 473.266 638.061 475.241L639.522 477.78C642.162 482.361 643.473 486.775 643.473 491.04C643.473 497.28 641.248 502.558 636.815 506.872C632.382 511.204 626.969 513.361 620.56 513.361C617.489 513.361 614.45 512.664 611.445 511.254V492.683C613.255 493.845 614.882 494.426 616.293 494.426C617.954 494.426 619.348 493.945 620.461 492.999C621.573 492.036 622.121 490.841 622.121 489.397C622.121 488.451 621.225 486.41 619.448 483.24C616.592 478.229 615.164 473.217 615.164 468.205C615.164 462.164 617.323 456.953 621.623 452.572C625.94 448.207 631.087 446.017 637.064 446.017C639.704 446.017 642.278 446.448 644.818 447.328L644.835 447.311Z" fill="#FF6187"/>
<path d="M68.2593 450.248V514.39H49.1652V450.248H68.2593Z" fill="#5ED9EA"/>
<path d="M109.021 468.67V514.407H89.9269V468.67H75.2992V450.248H123.582V468.67H109.004H109.021Z" fill="#5ED9EA"/>
<path d="M129.327 514.39V468.155C129.327 462.413 131.071 457.733 134.541 454.099C138.027 450.464 142.527 448.639 148.089 448.639C154.664 448.639 159.728 451.659 163.282 457.716C165.44 454.464 167.764 452.124 170.238 450.73C172.712 449.336 175.767 448.639 179.404 448.639C185.165 448.639 189.598 450.464 192.67 454.099C195.741 457.733 197.286 462.961 197.286 469.798V514.407H178.192V472.652C178.192 470.578 178.025 469.217 177.693 468.537C177.361 467.856 176.697 467.524 175.701 467.524C173.825 467.524 172.878 469.118 172.878 472.321V514.39H153.784V472.652C153.784 470.611 153.618 469.25 153.27 468.57C152.921 467.873 152.257 467.541 151.244 467.541C149.368 467.541 148.421 469.25 148.421 472.669V514.407H129.327V514.39Z" fill="#5ED9EA"/>
<path d="M239.276 448.639C248.375 448.639 256.162 451.941 262.67 458.563C269.179 465.168 272.433 473.084 272.433 482.294C272.433 491.505 269.162 499.62 262.604 506.175C256.046 512.731 248.093 516 238.712 516C229.331 516 221.46 512.714 214.869 506.126C208.277 499.537 204.99 491.605 204.99 482.294C204.99 472.984 208.31 464.936 214.935 458.413C221.56 451.891 229.679 448.639 239.276 448.639ZM238.712 467.524C234.793 467.524 231.456 468.968 228.7 471.856C225.943 474.743 224.565 478.212 224.565 482.294C224.565 486.377 225.96 489.845 228.733 492.733C231.506 495.621 234.843 497.064 238.728 497.064C242.613 497.064 246.017 495.637 248.773 492.766C251.513 489.895 252.891 486.41 252.891 482.311C252.891 478.212 251.513 474.727 248.773 471.856C246.034 468.985 242.68 467.558 238.728 467.558L238.712 467.524Z" fill="#5ED9EA"/>
<path d="M293.105 493.347C296.176 493.347 298.816 494.459 301.025 496.683C303.233 498.907 304.345 501.562 304.345 504.632C304.345 507.702 303.25 510.308 301.058 512.465C298.866 514.606 296.21 515.685 293.105 515.685C290 515.685 287.227 514.639 285.135 512.565C283.043 510.474 282.014 507.818 282.014 504.599C282.014 501.379 283.093 498.807 285.251 496.633C287.41 494.459 290.033 493.364 293.105 493.364V493.347Z" fill="#5ED9EA"/>
<path d="M336.938 468.67V514.407H317.844V450.248H342.716C353.625 450.248 362.159 452.721 368.336 457.667C375.674 463.591 379.344 471.624 379.344 481.78C379.344 491.936 376.206 499.421 369.946 505.561C363.67 511.702 355.601 514.772 345.738 514.772C344.576 514.772 342.683 514.706 340.043 514.589V495.737H343.098C354.223 495.737 359.785 491.09 359.785 481.78C359.785 473.034 354.322 468.67 343.38 468.67H336.938Z" fill="#5ED9EA"/>
<path d="M418.744 448.639C427.843 448.639 435.63 451.941 442.138 458.563C448.647 465.168 451.901 473.084 451.901 482.294C451.901 491.505 448.63 499.62 442.072 506.175C435.514 512.731 427.561 516 418.18 516C408.799 516 400.928 512.714 394.337 506.126C387.745 499.537 384.458 491.605 384.458 482.294C384.458 472.984 387.778 464.936 394.403 458.413C401.028 451.891 409.147 448.639 418.744 448.639ZM418.18 467.524C414.261 467.524 410.924 468.968 408.168 471.856C405.411 474.743 404.033 478.212 404.033 482.294C404.033 486.377 405.411 489.845 408.201 492.733C410.974 495.621 414.311 497.064 418.196 497.064C422.081 497.064 425.485 495.637 428.241 492.766C430.981 489.895 432.359 486.41 432.359 482.311C432.359 478.212 430.981 474.727 428.241 471.856C425.502 468.985 422.148 467.558 418.196 467.558L418.18 467.524Z" fill="#5ED9EA"/>
<path d="M459.572 514.39V472.752C459.572 465.45 461.764 459.608 466.131 455.227C470.497 450.846 476.325 448.655 483.598 448.655C490.87 448.655 496.382 450.78 500.218 455.045C504.053 459.31 505.979 465.433 505.979 473.416V514.407H486.885V473.416C486.885 469.499 485.49 467.541 482.701 467.541C479.912 467.541 478.65 469.499 478.65 473.416V514.407H459.556L459.572 514.39Z" fill="#5ED9EA"/>
<path d="M562.68 450.248V491.837C562.68 499.172 560.489 505.03 556.122 509.412C551.755 513.793 545.927 515.983 538.655 515.983C531.383 515.983 525.87 513.859 522.035 509.594C518.199 505.329 516.273 499.205 516.273 491.223V450.248H535.368V491.173C535.368 495.09 536.762 497.048 539.552 497.048C542.341 497.048 543.603 495.09 543.603 491.173V450.248H562.697H562.68Z" fill="#5ED9EA"/>
<path d="M602.23 468.67V514.407H583.136V468.67H568.508V450.248H616.791V468.67H602.213H602.23Z" fill="#5ED9EA"/>
<path d="M654 449.966V468.238C652.622 467.773 651.559 467.541 650.796 467.541C649.351 467.541 648.122 468.072 647.076 469.134C646.047 470.196 645.532 471.491 645.532 472.984C645.532 474.262 646.097 475.905 647.226 477.88L648.687 480.419C651.327 485 652.639 489.414 652.639 493.679C652.639 499.919 650.414 505.196 645.98 509.511C641.547 513.843 636.135 516 629.726 516C626.654 516 623.615 515.303 620.61 513.892V495.322C622.42 496.484 624.047 497.065 625.458 497.065C627.119 497.065 628.514 496.583 629.626 495.637C630.738 494.675 631.286 493.48 631.286 492.036C631.286 491.09 630.39 489.049 628.613 485.879C625.757 480.867 624.329 475.855 624.329 470.844C624.329 464.803 626.488 459.592 630.788 455.211C635.105 450.846 640.252 448.655 646.23 448.655C648.869 448.655 651.443 449.087 653.983 449.966H654Z" fill="#5ED9EA"/>
</g>
<defs>
<clipPath id="clip0_38_2784">
<rect width="614" height="70" fill="white" transform="translate(40 446)"/>
</clipPath>
</defs>
</svg>
